<svg height="280" viewBox="0 0 480 280" width="480" xmlns="http://www.w3.org/2000/svg"><g fill="none" fill-rule="evenodd" stroke-linecap="square"><g transform="translate(14 15)"><path d="m2 1h70" stroke="#2c3e50" stroke-width="10"/><g stroke-width="6"><path d="m0 28h115" stroke="#2c3e50"/><path d="m0 46h100" stroke="#2c3e50"/><path d="m0 65h150" stroke="#2c3e50"/><path d="m0 83h140" stroke="#2c3e50"/><path d="m204 28h8" stroke="#95a5a6"/><path d="m204 46h8" stroke="#95a5a6"/><path d="m204 65h8" stroke="#95a5a6"/><path d="m204 84h8" stroke="#95a5a6"/><path d="m0 101h150" stroke="#2c3e50"/><path d="m0 119h140" stroke="#2c3e50"/><path d="m204 101h8" stroke="#95a5a6"/><path d="m204 120h8" stroke="#95a5a6"/></g></g><g transform="translate(14 160)"><path d="m2 1h70" stroke="#2c3e50" stroke-width="10"/><g stroke-width="6"><path d="m0 28h130" stroke="#2c3e50"/><path d="m0 46h170" stroke="#2c3e50"/><path d="m0 65h140" stroke="#2c3e50"/><path d="m0 83h145" stroke="#2c3e50"/><path d="m204 28h8" stroke="#95a5a6"/><path d="m204 46h8" stroke="#95a5a6"/><path d="m204 65h8" stroke="#95a5a6"/><path d="m204 84h8" stroke="#95a5a6"/></g></g><g transform="translate(254 15)"><path d="m2 1h70" stroke="#2c3e50" stroke-width="10"/><g stroke-width="6"><path d="m0 156h115" stroke="#2c3e50"/><path d="m0 174h100" stroke="#2c3e50"/><path d="m0 193h150" stroke="#2c3e50"/><path d="m0 27h140" stroke="#2c3e50"/><path d="m204 156h8" stroke="#95a5a6"/><path d="m204 174h8" stroke="#95a5a6"/><path d="m204 193h8" stroke="#95a5a6"/><path d="m204 28h8" stroke="#95a5a6"/><path d="m0 45h150" stroke="#2c3e50"/><path d="m0 63h140" stroke="#2c3e50"/><path d="m204 45h8" stroke="#95a5a6"/><path d="m204 64h8" stroke="#95a5a6"/><path d="m0 82h130" stroke="#2c3e50"/><path d="m0 100h170" stroke="#2c3e50"/><path d="m0 119h140" stroke="#2c3e50"/><path d="m0 137h145" stroke="#2c3e50"/><path d="m204 82h8" stroke="#95a5a6"/><path d="m204 100h8" stroke="#95a5a6"/><path d="m204 119h8" stroke="#95a5a6"/><path d="m204 138h8" stroke="#95a5a6"/></g></g></g></svg>