<svg height="280" viewBox="0 0 480 280" width="480" xmlns="http://www.w3.org/2000/svg"><g fill="none" fill-rule="evenodd"><g transform="translate(249 207)"><g stroke-linecap="square" stroke-width="6"><path d="m41 15h166.0271" stroke="#2c3e50"/><path d="m41 27h151" stroke="#2c3e50"/><path d="m41 39h159" stroke="#2c3e50"/><path d="m41 51h110.004547" stroke="#bdc3c7"/><path d="m41 3h76" stroke="#1abc9c"/></g><path d="m0 0h30v30h-30z" fill="#bdc3c7"/></g><g transform="translate(249 140)"><path d="m186 55h30" stroke="#2c3e50" stroke-linecap="square" stroke-width="8"/><path d="m0 15h220v30h-220z" stroke="#bdc3c7" stroke-width="3"/><g stroke-linecap="square" stroke-width="8"><path d="m4 4h30" stroke="#2c3e50"/><path d="m47 4h30" stroke="#1abc9c"/><path d="m90 4h30" stroke="#1abc9c"/><path d="m132 4h30" stroke="#1abc9c"/></g></g><g transform="translate(249 47)"><path d="m5 72h20" stroke="#95a5a6" stroke-linecap="square" stroke-width="10"/><path d="m50 15h44v44h-44z" fill="#bdc3c7"/><path d="m0 15h44v44h-44z" fill="#bdc3c7"/><g stroke-linecap="square" stroke-width="10"><path d="m67 1h5" stroke="#95a5a6"/><path d="m46 1h5" stroke="#95a5a6"/><path d="m5 1h26" stroke="#2c3e50"/></g></g><g stroke-linecap="square" stroke-width="10" transform="translate(314 15)"><path d="m124 1h26" stroke="#e74c3c"/><path d="m83 1h26" stroke="#95a5a6"/><path d="m42 1h26" stroke="#95a5a6"/><path d="m0 1h26" stroke="#1abc9c"/></g><g transform="translate(11 15)"><g stroke-linecap="square"><g stroke="#2c3e50" stroke-width="6" transform="translate(3.857143 61)"><path d="m.14285714 31h192.99999986"/><path d="m.14285714 46h192.99999986"/><path d="m.14285714 16h179.99999986"/><path d="m.14285714 1h212.99999986"/></g><g stroke="#2c3e50" transform="translate(3.857143 127)"><g stroke-width="6"><path d="m.14285714 46h179.99999986"/><path d="m.14285714 31h192.99999986"/><path d="m.14285714 16h179.99999986"/></g><path d="m1.14285714 1h76.99999996" stroke-width="8"/></g><path d="m42 39h100" stroke="#2c3e50" stroke-width="6"/><path d="m42 25h76" stroke="#1abc9c" stroke-width="6"/></g><path d="m0 17h30v30h-30z" fill="#bdc3c7"/><path d="m6 1h92" stroke="#95a5a6" stroke-linecap="square" stroke-width="10"/></g></g></svg>