<svg height="128" viewBox="0 0 128 128" width="128" xmlns="http://www.w3.org/2000/svg"><rect fill="#2c3e50" fill-rule="evenodd" height="128" rx="8" width="128" y="-.00002"/><g fill="#fff" transform="matrix(1.1863144 0 0 1.1863144 -11.300136 -20.55539)"><path d="m40.48 70.37q3.24 0 5.68-.84 2.48-.84 4.12-2.36 1.68-1.56 2.52-3.68.84-2.16.84-4.76 0-5.24-3.28-8.24-3.24-3-9.88-3h-8.88v22.88zm0-29.56q5.52 0 9.6 1.28 4.08 1.28 6.76 3.64 2.68 2.32 3.96 5.64 1.32 3.32 1.32 7.36 0 4.04-1.4 7.44-1.4 3.36-4.12 5.8-2.72 2.44-6.8 3.8-4.04 1.32-9.32 1.32h-8.88v21.16h-8.52v-57.44z"/><path d="m77.405 62.77q2.56-2.6 5.64-4.2 3.12-1.6 7.16-1.6 3.36 0 5.88 1.12 2.56 1.12 4.28 3.16 1.72 2 2.6 4.84.88 2.84.88 6.28v25.88h-7.84v-25.88q0-4.36-2-6.76-2-2.44-6.12-2.44-3 0-5.64 1.44-2.6 1.4-4.84 3.84v29.8h-7.8v-59.04h7.8z"/></g></svg>