<svg height="128" viewBox="0 0 128 128" width="128" xmlns="http://www.w3.org/2000/svg"><rect fill="#2c3e50" fill-rule="evenodd" height="128" rx="8" width="128" y="-.00002"/><g fill="#fff" transform="matrix(1.1863144 0 0 1.1863144 -11.300136 -20.55539)"><path d="m40.48 64.558479c3.146784-.286086 8.056977.110222 10.24704-1.784373 2.59756-2.307416 2.886255-3.759493 2.91296-8.470821 0-3.493333-.513807-5.357742-2.700474-7.357742-2.16-2-6.032879-2.685219-10.459526-2.672077l-10.727119.03185-.03185 20.290419zm.191081-27.028707c3.68 0 6.45184.05433 9.408919.802297 4.756991 1.190525 6.70684 2.863464 9.007764 5.925878 1.907341 2.68749 3.075967 5.441356 3.032236 10.523041-.03935 4.572286-.327787 5.755107-1.898057 9.550424-2.522202 4.754416-5.016883 5.221816-7.310903 5.886845-2.548916.691024-5.869991.883982-12.43104 1.022969l-10.727119.07451v26.934268h-6.768422v-60.720228z"/><path d="m76.954617 63.085268c3.673137-3.712105 8.590588-5.235995 13.304802-5.27178 3.966505.0408 6.936221.507306 10.105581 3.436512 1.14667 1.333333 2.14938 2.728993 2.73605 4.622326s.74395 4.204341.74395 6.497674v25.88h-6.714043l.04504-25.60977c.0076-4.303003-.748061-5.612036-2.081394-7.212036-1.333333-1.626667-4.109215-2.230985-6.855882-2.230985-2 0-4.233721.452791-5.993721 1.412791-1.733333.933333-3.797049 2.438525-5.290383 4.065191v29.574809h-6.719081v-60.696037l6.719081.03185z"/></g></svg>