<svg xmlns="http://www.w3.org/2000/svg" xmlns:xlink="http://www.w3.org/1999/xlink" version="1" width="96" height="96"><defs><radialGradient cx="605.714" cy="486.648" r="117.143" fx="605.714" fy="486.648" id="m" xlink:href="#a" gradientUnits="userSpaceOnUse" gradientTransform="matrix(.02892 0 0 .01235 26.973 38.47)"/><linearGradient id="a"><stop offset="0"/><stop offset="1" stop-opacity="0"/></linearGradient><radialGradient cx="605.714" cy="486.648" r="117.143" fx="605.714" fy="486.648" id="l" xlink:href="#a" gradientUnits="userSpaceOnUse" gradientTransform="matrix(-.02892 0 0 .01235 21.027 38.47)"/><linearGradient id="b"><stop offset="0" stop-opacity="0"/><stop offset=".5"/><stop offset="1" stop-opacity="0"/></linearGradient><linearGradient x1="302.857" y1="366.648" x2="302.857" y2="609.505" id="k" xlink:href="#b" gradientUnits="userSpaceOnUse" gradientTransform="matrix(.0845 0 0 .01235 -6.54 38.47)"/><linearGradient id="j"><stop offset="0" stop-color="#fff"/><stop offset="1" stop-color="#e0e0e0"/></linearGradient><linearGradient id="c"><stop offset="0" stop-color="#333"/><stop offset="1" stop-color="#292929"/></linearGradient><linearGradient x1="-24.033" y1="-13.447" x2="-24.098" y2="-40.164" id="p" xlink:href="#c" gradientUnits="userSpaceOnUse" gradientTransform="matrix(-2.66744 .00994 .0065 -2.63853 .16 -4.24)"/><linearGradient id="d"><stop offset="0" stop-color="#828282"/><stop offset="1" stop-color="#272727"/></linearGradient><radialGradient cx="17" cy="109.586" r="47" fx="17" fy="109.586" id="o" xlink:href="#d" gradientUnits="userSpaceOnUse" gradientTransform="matrix(0 1.99089 -3.06071 0 352.412 -2.845)"/><linearGradient id="e"><stop offset="0"/><stop offset="1" stop-opacity="0"/></linearGradient><radialGradient cx="62.625" cy="4.625" r="10.625" fx="62.625" fy="4.625" id="q" xlink:href="#e" gradientUnits="userSpaceOnUse" gradientTransform="matrix(2.71059 0 0 .67765 -105.55 86.662)"/><linearGradient id="f"><stop offset="0" stop-color="#791235"/><stop offset="1" stop-color="#dd3b27"/></linearGradient><linearGradient x1="18.379" y1="44.98" x2="18.379" y2="3.082" id="s" xlink:href="#f" gradientUnits="userSpaceOnUse" gradientTransform="matrix(1.2385 0 0 1.2385 34.476 38.472)"/><linearGradient id="g"><stop offset="0" stop-color="#f8b17e"/><stop offset=".262" stop-color="#e35d4f"/><stop offset=".661" stop-color="#c6262e"/><stop offset="1" stop-color="#690b54"/></linearGradient><radialGradient cx="23.896" cy="3.99" r="20.397" fx="23.896" fy="3.99" id="r" xlink:href="#g" gradientUnits="userSpaceOnUse" gradientTransform="matrix(0 2.95587 -3.9017 0 79.768 -29.534)"/><linearGradient x1="62.943" y1="-20.887" x2="63.397" y2="5.468" id="t" xlink:href="#h" gradientUnits="userSpaceOnUse" gradientTransform="matrix(2.60705 0 0 2.607 -97.96 77.348)"/><linearGradient id="i"><stop offset="0" stop-color="#fff"/><stop offset="1" stop-color="#fff" stop-opacity="0"/></linearGradient><linearGradient x1="24.939" y1="-3.39" x2="24.481" y2="45.074" id="u" xlink:href="#i" gradientUnits="userSpaceOnUse" gradientTransform="matrix(1.2922 0 0 1.2922 34.087 34.991)"/><linearGradient x1="-64.057" y1="-23.751" x2="-63.973" y2="-110.324" id="v" xlink:href="#h" gradientUnits="userSpaceOnUse" gradientTransform="matrix(.98097 0 0 .97286 -1.139 -1.766)"/><linearGradient id="h"><stop offset="0" stop-color="#fff"/><stop offset="1" stop-color="#fff" stop-opacity="0"/></linearGradient><linearGradient x1="-64.057" y1="-23.751" x2="-63.973" y2="-110.324" id="w" xlink:href="#h" gradientUnits="userSpaceOnUse" gradientTransform="matrix(.88754 0 0 .85565 -7.251 124.364)"/><linearGradient x1="108.265" y1="110.281" x2="25.818" y2="14.029" id="n" xlink:href="#j" gradientUnits="userSpaceOnUse" gradientTransform="matrix(-1.21593 .0021 -.00081 -.843 146.724 120.96)"/></defs><g opacity=".3"><path style="marker:none" overflow="visible" fill="url(#k)" d="M3.6 43h40.8v3H3.6z" transform="matrix(1.78125 0 0 1.75 5.25 4.25)"/><path d="M3.6 43v3c-1.49.006-3.6-.672-3.6-1.5S1.662 43 3.6 43z" style="marker:none" overflow="visible" fill="url(#l)" transform="matrix(1.78125 0 0 1.75 5.25 4.25)"/><path d="M44.4 43v3c1.49.006 3.6-.672 3.6-1.5S46.338 43 44.4 43z" style="marker:none" overflow="visible" fill="url(#m)" transform="matrix(1.78125 0 0 1.75 5.25 4.25)"/></g><path d="M117.5 109.5h-107v-85h107v85z" fill="url(#n)" stroke="#c1c1c1" stroke-linecap="round" stroke-opacity=".969" transform="scale(.75)"/><path d="M110.5 102.5h-93v-71h93v71z" fill="url(#o)" stroke="url(#p)" stroke-linecap="round" transform="scale(.75)"/><path d="M93 89.796c0 3.976-12.894 7.2-28.8 7.2s-28.8-3.224-28.8-7.2c0-3.977 12.894-7.2 28.8-7.2s28.8 3.223 28.8 7.2z" style="marker:none" overflow="visible" opacity=".4" fill="url(#q)" fill-rule="evenodd" transform="scale(.75)"/><path d="M64.2 42.5c-13.902 0-25.7 11.794-25.7 25.696C38.5 82.098 50.298 93.5 64.2 93.5s25.3-11.402 25.3-25.304S78.102 42.5 64.2 42.5zm0 8.589c9.452 0 17.107 7.655 17.107 17.107 0 3.966-1.375 7.587-3.638 10.488L55.995 53.18a17.045 17.045 0 0 1 8.205-2.09zm-13.7 6.89l21.595 25.388a17.042 17.042 0 0 1-7.895 1.935c-9.452 0-17.107-7.655-17.107-17.106 0-3.84 1.272-7.364 3.406-10.218z" fill="url(#r)" stroke="url(#s)" stroke-linecap="round" stroke-linejoin="round" transform="scale(.75)"/><path d="M88.5 68.195C88.5 80.787 76.791 92.5 64.2 92.5c-12.592 0-24.7-11.713-24.7-24.305S51.608 43.5 64.2 43.5c12.591 0 24.3 12.103 24.3 24.695z" opacity=".4" fill="none" stroke="url(#t)" transform="scale(.75)"/><path d="M55.03 53.883l21.876 25.513" opacity=".4" fill="none" stroke="url(#u)" stroke-linecap="round" transform="scale(.75)"/><path transform="matrix(-.75 .00129 -.00073 -.75 0 0)" fill="none" stroke="url(#v)" stroke-linecap="round" stroke-opacity=".969" d="M-116.395-108.52h104.92v82.82h-104.92z"/><path transform="matrix(-.75 -.00125 -.00075 .75 0 0)" fill="none" stroke="url(#w)" stroke-linecap="round" stroke-opacity=".969" d="M-111.53 30.472h94.928v72.841h-94.928z"/></svg>