<svg xmlns="http://www.w3.org/2000/svg" xmlns:xlink="http://www.w3.org/1999/xlink" version="1" width="96" height="96"><defs><radialGradient cx="5" cy="41.5" r="5" fx="5" fy="41.5" id="m" xlink:href="#a" gradientUnits="userSpaceOnUse" gradientTransform="matrix(.59382 0 0 1.53665 41.14 -103.936)"/><linearGradient id="b"><stop offset="0" stop-opacity="0"/><stop offset=".5"/><stop offset="1" stop-opacity="0"/></linearGradient><linearGradient x1="17.554" y1="46" x2="17.554" y2="35" id="l" xlink:href="#b" gradientUnits="userSpaceOnUse" gradientTransform="matrix(1.75703 0 0 1.39696 -17.394 -16.412)"/><linearGradient id="a"><stop offset="0"/><stop offset="1" stop-opacity="0"/></linearGradient><radialGradient cx="5" cy="41.5" r="5" fx="5" fy="41.5" id="k" xlink:href="#a" gradientUnits="userSpaceOnUse" gradientTransform="matrix(.59382 0 0 1.53665 -6.66 -103.936)"/><linearGradient id="c"><stop offset="0" stop-color="#c9af8b"/><stop offset=".239" stop-color="#ad8757"/><stop offset=".276" stop-color="#c2a57f"/><stop offset="1" stop-color="#9d7d53"/></linearGradient><linearGradient x1="15.464" y1="7.976" x2="15.464" y2="45.042" id="o" xlink:href="#c" gradientUnits="userSpaceOnUse" gradientTransform="matrix(2.02407 0 0 2.02595 -.578 -.66)"/><linearGradient id="d"><stop offset="0" stop-color="#dac197"/><stop offset=".239" stop-color="#c1a581"/><stop offset=".276" stop-color="#dac197"/><stop offset="1" stop-color="#a68b60"/></linearGradient><linearGradient x1="24.823" y1="15.378" x2="24.997" y2="37.277" id="n" xlink:href="#d" gradientUnits="userSpaceOnUse" gradientTransform="matrix(2.59531 0 0 3.15494 -12.864 -31.64)"/><linearGradient id="e"><stop offset="0" stop-color="#cbad7a"/><stop offset="1" stop-color="#cbae7d" stop-opacity="0"/></linearGradient><radialGradient cx="24" cy="31" r="20" fx="24" fy="31" id="p" xlink:href="#e" gradientUnits="userSpaceOnUse" gradientTransform="matrix(3.39222 0 0 1.35 -33.413 20.15)"/><linearGradient id="f"><stop offset="0" stop-color="#fff" stop-opacity="0"/><stop offset="1" stop-color="#fff" stop-opacity="0"/></linearGradient><linearGradient x1="23.452" y1="30.555" x2="43.007" y2="45.934" id="q" xlink:href="#f" gradientUnits="userSpaceOnUse" gradientTransform="matrix(2.71055 0 0 2.4731 -15.567 -13.822)"/><linearGradient id="g"><stop offset="0" stop-color="#fff"/><stop offset=".302" stop-color="#fff"/><stop offset=".344" stop-color="#fff" stop-opacity=".69"/><stop offset="1" stop-color="#fff" stop-opacity="0"/></linearGradient><linearGradient x1="26" y1="22" x2="26" y2="8" id="r" xlink:href="#g" gradientUnits="userSpaceOnUse" gradientTransform="matrix(2.5 0 0 2 -12 0)"/><linearGradient id="h"><stop offset="0" stop-color="#fff" stop-opacity="0"/><stop offset=".167" stop-color="#fff"/><stop offset=".832" stop-color="#fff"/><stop offset="1" stop-color="#fff" stop-opacity="0"/></linearGradient><linearGradient x1="44.995" y1="17.5" x2="3.005" y2="17.5" id="s" xlink:href="#h" gradientUnits="userSpaceOnUse" spreadMethod="reflect" gradientTransform="matrix(2.0249 0 0 2.02553 -.598 -.947)"/><linearGradient x1="63.5" y1="47.5" x2="63.5" y2="23.5" id="u" xlink:href="#i" gradientUnits="userSpaceOnUse" gradientTransform="matrix(1 0 0 .73913 -15 -.74)"/><linearGradient id="i"><stop offset="0" stop-color="#fff"/><stop offset="1" stop-color="#fff" stop-opacity=".314"/></linearGradient><linearGradient gradientTransform="matrix(1 0 0 .73913 -16 -.74)" x1="63.5" y1="47.5" x2="63.5" y2="23.5" id="t" xlink:href="#j" gradientUnits="userSpaceOnUse"/><linearGradient id="j"><stop offset="0" stop-color="#ad8757"/><stop offset="1" stop-color="#c7ad88" stop-opacity=".392"/></linearGradient></defs><g opacity=".4"><path transform="matrix(-2.00993 0 0 -1.97721 .032 1.394)" fill="url(#k)" d="M-3.69-47.848h2.96v15.367h-2.96z"/><path fill="url(#l)" d="M3.69 32.482h40.412v15.367H3.69z" transform="matrix(2.00993 0 0 1.97721 .032 1.394)"/><path transform="matrix(2.00993 0 0 -1.97721 .032 1.394)" fill="url(#m)" d="M44.11-47.848h2.96v15.367h-2.96z"/></g><path d="M17.66 16.56h59.706c3.486 0 5.054-.58 6.055 2.026l6.076 16.207v52.015c0 3.146.208 2.666-3.277 2.666H9.78c-3.485 0-3.277.48-3.277-2.666V34.793l6.076-16.207c.973-2.554 1.596-2.026 5.082-2.026z" style="marker:none" fill="url(#n)" stroke="url(#o)" stroke-linecap="round" display="block" overflow="visible"/><path style="marker:none" fill="url(#p)" fill-rule="evenodd" overflow="visible" d="M7 35h82v54H7z"/><path d="M18.295 17.371h58.457c3.412 0 5.524 1.172 6.954 4.392l4.923 13.515v48.727c0 3.076-1.73 4.624-5.143 4.624h-71.31c-3.413 0-4.805-1.703-4.805-4.778V35.278l4.764-13.805c.953-2.496 2.748-4.102 6.16-4.102z" style="marker:none" opacity=".505" fill="none" stroke="url(#q)" stroke-width=".742" display="block" overflow="visible"/><path d="M43 16h10v28H43V16z" style="marker:none" opacity=".4" fill="url(#r)" overflow="visible"/><path d="M6.5 34.5h83" opacity=".3" fill="none" stroke="url(#s)" stroke-linecap="square"/><path d="M47.5 17v17" fill="none" stroke="url(#t)"/><path d="M48.5 17v17" opacity=".3" fill="none" stroke="url(#u)"/></svg>