<svg xmlns="http://www.w3.org/2000/svg" xmlns:xlink="http://www.w3.org/1999/xlink" width="96" height="96"><defs><linearGradient xlink:href="#a" id="t" x1="33.382" y1="41.766" x2="33.382" y2="54" gradientUnits="userSpaceOnUse" gradientTransform="matrix(1.505 0 0 1.50939 -.21 -32.038)"/><linearGradient id="a"><stop offset="0"/><stop offset="1" stop-opacity="0"/></linearGradient><linearGradient xlink:href="#b" id="s" gradientUnits="userSpaceOnUse" x1="238.04" y1="-81.777" x2="238.04" y2="-164.299" gradientTransform="matrix(.8952 0 0 .90025 -173.098 128.843)"/><linearGradient id="b"><stop offset="0" stop-color="#a5a6a8"/><stop offset="1" stop-color="#e8e8e8"/></linearGradient><linearGradient xlink:href="#c" id="r" gradientUnits="userSpaceOnUse" x1="30.422" y1="60.08" x2="30.422" y2="3.882" gradientTransform="matrix(1.505 0 0 1.50939 -.21 -31.582)"/><linearGradient id="c"><stop offset="0" stop-color="#272727"/><stop offset="1" stop-color="#454545"/></linearGradient><linearGradient y2="24.628" x2="20.055" y1="15.298" x1="16.626" gradientTransform="matrix(1.78022 0 0 2.81934 5.191 -41.105)" gradientUnits="userSpaceOnUse" id="q" xlink:href="#d"/><linearGradient id="d"><stop offset="0" stop-color="#fff"/><stop offset="1" stop-color="#fff" stop-opacity="0"/></linearGradient><linearGradient xlink:href="#e" id="p" gradientUnits="userSpaceOnUse" gradientTransform="matrix(2.18919 0 0 2.18919 -4.54 -36.54)" x1="24" y1="5" x2="24" y2="43"/><linearGradient id="e"><stop offset="0" stop-color="#fff"/><stop offset=".024" stop-color="#fff" stop-opacity=".235"/><stop offset=".971" stop-color="#fff" stop-opacity=".157"/><stop offset="1" stop-color="#fff" stop-opacity=".392"/></linearGradient><radialGradient xlink:href="#f" id="n" gradientUnits="userSpaceOnUse" gradientTransform="matrix(0 4.9736 -5.26147 0 92.458 -61.54)" cx="7.496" cy="8.45" fx="7.496" fy="8.45" r="20"/><linearGradient id="f"><stop offset="0" stop-color="#5f5f5f"/><stop offset=".262" stop-color="#4f4f4f"/><stop offset=".705" stop-color="#3b3b3b"/><stop offset="1" stop-color="#2b2b2b"/></linearGradient><linearGradient xlink:href="#g" id="o" gradientUnits="userSpaceOnUse" gradientTransform="matrix(2.1282 0 0 2.1282 -3.077 -35.077)" x1="24" y1="44" x2="24" y2="3.899"/><linearGradient id="g"><stop offset="0" stop-color="#272727"/><stop offset="1" stop-color="#454545"/></linearGradient><radialGradient gradientTransform="matrix(2.00378 0 0 1.4 27.988 -17.4)" gradientUnits="userSpaceOnUse" xlink:href="#h" id="k" fy="43.5" fx="4.993" r="2.5" cy="43.5" cx="4.993"/><linearGradient id="h"><stop offset="0" stop-color="#181818"/><stop offset="1" stop-color="#181818" stop-opacity="0"/></linearGradient><radialGradient gradientTransform="matrix(2.00378 0 0 1.4 -20.012 -104.4)" gradientUnits="userSpaceOnUse" xlink:href="#i" id="l" fy="43.5" fx="4.993" r="2.5" cy="43.5" cx="4.993"/><linearGradient id="i"><stop offset="0" stop-color="#181818"/><stop offset="1" stop-color="#181818" stop-opacity="0"/></linearGradient><linearGradient gradientUnits="userSpaceOnUse" xlink:href="#j" id="m" y2="39.999" x2="25.058" y1="47.028" x1="25.058"/><linearGradient id="j"><stop offset="0" stop-color="#181818" stop-opacity="0"/><stop offset=".5" stop-color="#181818"/><stop offset="1" stop-color="#181818" stop-opacity="0"/></linearGradient></defs><g opacity=".4"><path fill="url(#k)" d="M38 40h5v7h-5z" transform="matrix(2.37632 0 0 1.07813 -9.082 42.628)"/><path transform="matrix(-2.37632 0 0 -1.07813 -9.082 42.628)" fill="url(#l)" d="M-10-47h5v7h-5z"/><path fill="url(#m)" d="M10 40h28v7H10z" transform="matrix(2.37632 0 0 1.07813 -9.082 42.628)"/></g><path style="marker:none" color="#000" fill="url(#n)" stroke="url(#o)" stroke-linecap="round" stroke-linejoin="round" overflow="visible" d="M6.5-25.5h83v83h-83z" transform="translate(0 32)"/><path opacity=".5" fill="none" stroke="url(#p)" stroke-linecap="round" d="M7.5-24.5h81v81h-81z" transform="translate(0 32)"/><path d="M7-25l.027 52C9.387 26.948 87.21 7.832 89 6.912V-25z" opacity=".2" fill="url(#q)" fill-rule="evenodd" transform="translate(0 32)"/><path style="marker:none" d="M50.209-18.017c-1.974-.256-2.249 1.598-2.043 3.074-.018 14.69.038 29.595-.027 44.277l-2.023-.31c-6.693-.409-14.306 4.459-14.975 11.483-.789 5.585 5.395 10.18 10.642 9.312 6.611-.704 11.53-7.395 10.668-14.001.019-11.632-.037-23.278.028-34.901.45-.518 1.37.584 1.845.639C59.64 4.71 64.344 9.914 64.66 16.393c.35 5.063-1.18 10.017-2.899 14.71 5.763-7.114 7.607-17.492 3.603-25.895C63.317.33 58.697-2.676 56.113-7.206c-1.909-3.028-3.361-6.408-3.816-9.983-.374-.745-1.36-.836-2.088-.828z" color="#000" fill="url(#r)" overflow="visible" transform="translate(0 32)"/><path d="M50.309-16.942c-2.296 0-2.245 1.523-2.245 3.074l-.028 44.278c-.329-.104-.913-.207-1.82-.31-6.692-.41-14.334 3.88-15.075 11.482-.837 6.043 4.966 10.301 10.743 9.312C49.072 50.021 52.862 43.5 52 36.893c.018-11.632-.065-23.278 0-34.901.45-.518 1.439.074 2.424.639 5.317 3.155 10.22 8.358 10.538 14.837.349 5.063-1.18 10.017-2.9 14.71 5.763-7.114 7.807-17.492 3.803-25.895C63.817 1.405 58.997-1.6 56.413-6.13c-1.909-3.028-3.561-6.408-4.016-9.982-.374-.746-1.36-.837-2.088-.829z" fill="url(#s)" transform="translate(0 32)"/><path d="M50.207-16.37c-2.243-.133-1.548 2.74-1.707 4.187-.014 14.206.117 29.064.065 43.267-1.52-.42-3.192-.537-4.984-.412-6.415.866-12.033 5.273-12.031 12.65.598 5.833 7.59 8.572 12.451 6.522 5.847-2.02 8.186-7.585 7.459-12.97.06-11.724-.128-23.472.082-35.183.835-1.036 2.664.27 3.916.958 5.421 3.295 10.328 9.303 10.139 16.288-.029 2.826-1.31 7.674-2.079 10.38 4.62-7.429 5.892-19.337-1.052-27.32-3.184-3.534-6.574-7.025-8.513-11.435-.952-2.047-1.722-4.086-2.035-6.327-.052-.735-1.394-.623-1.71-.604z" opacity=".1" fill="none" stroke="url(#t)" transform="translate(0 32)"/></svg>