<svg xmlns="http://www.w3.org/2000/svg" xmlns:xlink="http://www.w3.org/1999/xlink" width="96" height="96" viewBox="0 0 96 96"><defs><radialGradient xlink:href="#a" id="h" gradientUnits="userSpaceOnUse" gradientTransform="matrix(.03128 0 0 .02053 64.045 1036.684)" cx="605.714" cy="486.648" fx="605.714" fy="486.648" r="117.143"/><linearGradient id="a"><stop offset="0"/><stop offset="1" stop-opacity="0"/></linearGradient><radialGradient xlink:href="#a" id="g" gradientUnits="userSpaceOnUse" gradientTransform="matrix(-.03128 0 0 .02053 31.85 1036.684)" cx="605.714" cy="486.648" fx="605.714" fy="486.648" r="117.143"/><linearGradient id="b"><stop offset="0" stop-opacity="0"/><stop offset=".5"/><stop offset="1" stop-opacity="0"/></linearGradient><linearGradient y2="609.505" x2="302.857" y1="366.648" x1="302.857" gradientTransform="matrix(.14476 0 0 .02053 -4.373 1036.684)" gradientUnits="userSpaceOnUse" id="f" xlink:href="#b"/><linearGradient id="e"><stop offset="0" stop-color="#a0a0a0"/><stop offset="1" stop-color="#bebebe"/></linearGradient><linearGradient id="d"><stop offset="0" stop-color="#f4f4f4"/><stop offset="1" stop-color="#dbdbdb"/></linearGradient><linearGradient id="c"><stop offset="0" stop-color="#fff"/><stop offset=".036" stop-color="#fff" stop-opacity=".235"/><stop offset=".951" stop-color="#fff" stop-opacity=".157"/><stop offset="1" stop-color="#fff" stop-opacity=".392"/></linearGradient><linearGradient xlink:href="#c" id="k" gradientUnits="userSpaceOnUse" gradientTransform="matrix(1.86486 0 0 2.35136 3.243 945.93)" x1="24" y1="5.564" x2="24" y2="43"/><linearGradient xlink:href="#d" id="i" gradientUnits="userSpaceOnUse" gradientTransform="matrix(2.02857 0 0 1.9338 -.686 952.984)" x1="25.132" y1=".985" x2="25.132" y2="47.013"/><linearGradient xlink:href="#e" id="j" gradientUnits="userSpaceOnUse" gradientTransform="matrix(1.63806 0 0 1.80974 119.832 950.829)" x1="-51.786" y1="50.786" x2="-51.786" y2="2.906"/></defs><path style="marker:none" opacity=".3" fill="url(#f)" overflow="visible" d="M12.998 1044.211h69.899v4.986H12.998z" transform="matrix(1.00403 0 0 1.00283 -.14 -959.166)"/><path d="M12.998 1044.212v4.985c-1.61.013-3.894-1.118-3.894-2.494 0-1.376 1.798-2.491 3.894-2.491z" style="marker:none" opacity=".3" fill="url(#g)" overflow="visible" transform="matrix(1.00403 0 0 1.00283 -.14 -959.166)"/><path d="M82.897 1044.212v4.985c1.61.013 3.894-1.118 3.894-2.494 0-1.376-1.797-2.491-3.894-2.491z" style="marker:none" opacity=".3" fill="url(#h)" overflow="visible" transform="matrix(1.00403 0 0 1.00283 -.14 -959.166)"/><path d="M12.5 957.862c16.27 0 71 .008 71 .008v88.992h-71v-88.998z" fill="url(#i)" stroke="url(#j)" stroke-linejoin="round" transform="translate(0 -956.362)"/><path d="M82.5 1045.862h-69v-87h69z" fill="none" stroke="url(#k)" stroke-linecap="round" transform="translate(0 -956.362)"/></svg>