<svg xmlns="http://www.w3.org/2000/svg" xmlns:xlink="http://www.w3.org/1999/xlink" width="96" height="96"><defs><linearGradient xlink:href="#a" id="C" gradientUnits="userSpaceOnUse" gradientTransform="matrix(1.39576 0 0 2.01399 1.66 -51.949)" x1="21.566" y1="18.658" x2="29.8" y2="32.933"/><linearGradient id="a"><stop offset="0" stop-color="#fff"/><stop offset="1" stop-color="#fff" stop-opacity="0"/></linearGradient><linearGradient xlink:href="#b" id="B" gradientUnits="userSpaceOnUse" gradientTransform="matrix(.66113 0 0 .66512 -55.253 71.783)" x1="149.985" y1="-104.235" x2="149.985" y2="-174.968"/><linearGradient id="b"><stop offset="0" stop-color="#272727"/><stop offset="1" stop-color="#454545"/></linearGradient><linearGradient xlink:href="#c" id="A" gradientUnits="userSpaceOnUse" gradientTransform="matrix(1.71076 0 0 1.5577 -5.91 -48.288)" x1="24" y1="5" x2="24" y2="57.33"/><linearGradient id="c"><stop offset="0" stop-color="#fff"/><stop offset=".031" stop-color="#fff" stop-opacity=".235"/><stop offset=".971" stop-color="#fff" stop-opacity=".157"/><stop offset="1" stop-color="#fff" stop-opacity=".392"/></linearGradient><linearGradient id="d"><stop offset="0" stop-color="#fff"/><stop offset="1" stop-color="#fff" stop-opacity="0"/></linearGradient><linearGradient xlink:href="#d" id="D" gradientUnits="userSpaceOnUse" gradientTransform="matrix(1.12462 0 0 1.28467 39.926 -9.23)" x1="37.104" y1="-13.709" x2="37.104" y2="-21.333"/><radialGradient xlink:href="#e" id="E" gradientUnits="userSpaceOnUse" gradientTransform="matrix(2.00378 0 0 .8 32.988 9.2)" cx="4.993" cy="43.5" fx="4.993" fy="43.5" r="2.5"/><linearGradient id="e"><stop offset="0" stop-color="#181818"/><stop offset="1" stop-color="#181818" stop-opacity="0"/></linearGradient><radialGradient xlink:href="#f" id="F" gradientUnits="userSpaceOnUse" gradientTransform="matrix(2.00378 0 0 .8 -15.012 -78.8)" cx="4.993" cy="43.5" fx="4.993" fy="43.5" r="2.5"/><linearGradient id="f"><stop offset="0" stop-color="#181818"/><stop offset="1" stop-color="#181818" stop-opacity="0"/></linearGradient><linearGradient y2="39.999" x2="25.058" y1="47.028" x1="25.058" gradientTransform="matrix(1.35714 0 0 .57143 -8.571 19.143)" gradientUnits="userSpaceOnUse" id="G" xlink:href="#g"/><linearGradient id="g"><stop offset="0" stop-color="#181818" stop-opacity="0"/><stop offset=".5" stop-color="#181818"/><stop offset="1" stop-color="#181818" stop-opacity="0"/></linearGradient><linearGradient xlink:href="#h" id="H" gradientUnits="userSpaceOnUse" gradientTransform="matrix(1.125 0 0 1.2851 50.937 -9.224)" x1="37.104" y1="-13.709" x2="37.104" y2="-21.333"/><linearGradient id="h"><stop offset="0" stop-color="#fff"/><stop offset="1" stop-color="#fff" stop-opacity="0"/></linearGradient><linearGradient xlink:href="#i" id="I" gradientUnits="userSpaceOnUse" gradientTransform="matrix(1.12462 0 0 1.28467 61.926 -9.23)" x1="37.104" y1="-13.709" x2="37.104" y2="-21.333"/><linearGradient id="i"><stop offset="0" stop-color="#fff"/><stop offset="1" stop-color="#fff" stop-opacity="0"/></linearGradient><linearGradient xlink:href="#j" id="J" gradientUnits="userSpaceOnUse" gradientTransform="matrix(1.12462 0 0 1.28467 72.926 -9.23)" x1="37.104" y1="-13.709" x2="37.104" y2="-21.333"/><linearGradient id="j"><stop offset="0" stop-color="#fff"/><stop offset="1" stop-color="#fff" stop-opacity="0"/></linearGradient><linearGradient xlink:href="#k" id="K" gradientUnits="userSpaceOnUse" gradientTransform="matrix(1.12462 0 0 1.28467 83.926 -9.23)" x1="37.104" y1="-13.709" x2="37.104" y2="-21.333"/><linearGradient id="k"><stop offset="0" stop-color="#fff"/><stop offset="1" stop-color="#fff" stop-opacity="0"/></linearGradient><linearGradient xlink:href="#l" id="L" gradientUnits="userSpaceOnUse" gradientTransform="matrix(1.12462 0 0 1.28467 94.926 -9.23)" x1="37.104" y1="-13.709" x2="37.104" y2="-21.333"/><linearGradient id="l"><stop offset="0" stop-color="#fff"/><stop offset="1" stop-color="#fff" stop-opacity="0"/></linearGradient><linearGradient xlink:href="#m" id="M" gradientUnits="userSpaceOnUse" gradientTransform="matrix(1.12462 0 0 1.28467 105.926 -9.23)" x1="37.104" y1="-13.709" x2="37.104" y2="-21.333"/><linearGradient id="m"><stop offset="0" stop-color="#fff"/><stop offset="1" stop-color="#fff" stop-opacity="0"/></linearGradient><linearGradient xlink:href="#n" id="N" gradientUnits="userSpaceOnUse" gradientTransform="matrix(1.12462 0 0 1.28467 116.926 -9.23)" x1="37.104" y1="-13.709" x2="37.104" y2="-21.333"/><linearGradient id="n"><stop offset="0" stop-color="#fff"/><stop offset="1" stop-color="#fff" stop-opacity="0"/></linearGradient><radialGradient xlink:href="#o" id="y" gradientUnits="userSpaceOnUse" gradientTransform="matrix(0 3.59213 -4.20415 0 71.185 -66.414)" cx="7.496" cy="8.45" fx="7.496" fy="8.45" r="20"/><linearGradient id="o"><stop offset="0" stop-color="#4d4d4d"/><stop offset=".262" stop-color="#404040"/><stop offset=".705" stop-color="#303030"/><stop offset="1" stop-color="#232323"/></linearGradient><linearGradient xlink:href="#p" id="z" gradientUnits="userSpaceOnUse" gradientTransform="matrix(1.70053 0 0 1.53708 -5.152 -47.301)" x1="24" y1="44" x2="24" y2="3.899"/><linearGradient id="p"><stop offset="0" stop-color="#202020"/><stop offset="1" stop-color="#383838"/></linearGradient><linearGradient xlink:href="#q" id="V" gradientUnits="userSpaceOnUse" gradientTransform="matrix(1.12462 0 0 1.28467 116.926 59.77)" x1="37.104" y1="-13.709" x2="37.104" y2="-21.333"/><linearGradient id="q"><stop offset="0" stop-color="#fff"/><stop offset="1" stop-color="#fff" stop-opacity="0"/></linearGradient><linearGradient xlink:href="#r" id="U" gradientUnits="userSpaceOnUse" gradientTransform="matrix(1.12462 0 0 1.28467 105.926 59.77)" x1="37.104" y1="-13.709" x2="37.104" y2="-21.333"/><linearGradient id="r"><stop offset="0" stop-color="#fff"/><stop offset="1" stop-color="#fff" stop-opacity="0"/></linearGradient><linearGradient xlink:href="#s" id="T" gradientUnits="userSpaceOnUse" gradientTransform="matrix(1.12462 0 0 1.28467 94.926 59.77)" x1="37.104" y1="-13.709" x2="37.104" y2="-21.333"/><linearGradient id="s"><stop offset="0" stop-color="#fff"/><stop offset="1" stop-color="#fff" stop-opacity="0"/></linearGradient><linearGradient xlink:href="#t" id="S" gradientUnits="userSpaceOnUse" gradientTransform="matrix(1.12462 0 0 1.28467 83.926 59.77)" x1="37.104" y1="-13.709" x2="37.104" y2="-21.333"/><linearGradient id="t"><stop offset="0" stop-color="#fff"/><stop offset="1" stop-color="#fff" stop-opacity="0"/></linearGradient><linearGradient xlink:href="#u" id="R" gradientUnits="userSpaceOnUse" gradientTransform="matrix(1.12462 0 0 1.28467 72.926 59.77)" x1="37.104" y1="-13.709" x2="37.104" y2="-21.333"/><linearGradient id="u"><stop offset="0" stop-color="#fff"/><stop offset="1" stop-color="#fff" stop-opacity="0"/></linearGradient><linearGradient xlink:href="#v" id="Q" gradientUnits="userSpaceOnUse" gradientTransform="matrix(1.12462 0 0 1.28467 61.926 59.77)" x1="37.104" y1="-13.709" x2="37.104" y2="-21.333"/><linearGradient id="v"><stop offset="0" stop-color="#fff"/><stop offset="1" stop-color="#fff" stop-opacity="0"/></linearGradient><linearGradient xlink:href="#w" id="P" gradientUnits="userSpaceOnUse" gradientTransform="matrix(1.125 0 0 1.2851 50.937 59.776)" x1="37.104" y1="-13.709" x2="37.104" y2="-21.333"/><linearGradient id="w"><stop offset="0" stop-color="#fff"/><stop offset="1" stop-color="#fff" stop-opacity="0"/></linearGradient><linearGradient xlink:href="#x" id="O" gradientUnits="userSpaceOnUse" gradientTransform="matrix(1.12462 0 0 1.28467 39.926 59.77)" x1="37.104" y1="-13.709" x2="37.104" y2="-21.333"/><linearGradient id="x"><stop offset="0" stop-color="#fff"/><stop offset="1" stop-color="#fff" stop-opacity="0"/></linearGradient></defs><g transform="translate(0 48)"><path d="M73.81 29.498h2.38c1.17 0 2.308.966 2.308 2.135v5.633c0 1.169-1.139 2.234-2.309 2.234h-2.38c-1.17 0-2.309-1.065-2.309-2.234v-5.633c0-1.17 1.139-2.135 2.31-2.135zm-11 0h2.38c1.17 0 2.308.966 2.308 2.135v5.633c0 1.169-1.139 2.234-2.309 2.234h-2.38c-1.17 0-2.309-1.065-2.309-2.234v-5.633c0-1.17 1.139-2.135 2.31-2.135zm-11 0h2.38c1.17 0 2.308.966 2.308 2.135v5.633c0 1.169-1.139 2.234-2.309 2.234h-2.38c-1.17 0-2.309-1.065-2.309-2.234v-5.633c0-1.17 1.139-2.135 2.31-2.135zm-10.985 0h2.348c1.178 0 2.325.966 2.325 2.135v5.633c0 1.169-1.147 2.234-2.325 2.234h-2.348c-1.178 0-2.325-1.065-2.325-2.234v-5.633c0-1.17 1.147-2.135 2.325-2.135zm-11.016 0h2.38c1.17 0 2.31.966 2.31 2.135v5.633c0 1.169-1.14 2.234-2.31 2.234h-2.38c-1.17 0-2.309-1.065-2.309-2.234v-5.633c0-1.17 1.139-2.135 2.31-2.135zm-10.966 0h2.313c1.187 0 2.342.966 2.342 2.135v5.633c0 1.169-1.155 2.234-2.342 2.234h-2.313c-1.188 0-2.343-1.065-2.343-2.234v-5.633c0-1.17 1.155-2.135 2.343-2.135zm-11.034 0h2.38c1.17 0 2.31.966 2.31 2.135v5.633c0 1.169-1.14 2.234-2.31 2.234H7.81c-1.17 0-2.309-1.065-2.309-2.234v-5.633c0-1.17 1.139-2.135 2.31-2.135zm77 0h2.38c1.17 0 2.31.966 2.31 2.135v5.633c0 1.169-1.14 2.234-2.31 2.234h-2.38c-1.17 0-2.309-1.065-2.309-2.234v-5.633c0-1.17 1.139-2.135 2.31-2.135zm-11-69h2.38c1.17 0 2.31.966 2.31 2.135v5.633c0 1.169-1.14 2.234-2.31 2.234h-2.38c-1.17 0-2.309-1.065-2.309-2.234v-5.633c0-1.17 1.139-2.135 2.31-2.135zm-11 0h2.38c1.17 0 2.31.966 2.31 2.135v5.633c0 1.169-1.14 2.234-2.31 2.234h-2.38c-1.17 0-2.309-1.065-2.309-2.234v-5.633c0-1.17 1.139-2.135 2.31-2.135zm-11 0h2.38c1.17 0 2.31.966 2.31 2.135v5.633c0 1.169-1.14 2.234-2.31 2.234h-2.38c-1.17 0-2.309-1.065-2.309-2.234v-5.633c0-1.17 1.139-2.135 2.31-2.135zm-10.984 0h2.348c1.178 0 2.325.966 2.325 2.135v5.633c0 1.169-1.147 2.234-2.325 2.234h-2.348c-1.178 0-2.325-1.065-2.325-2.234v-5.633c0-1.17 1.147-2.135 2.325-2.135zm-11.016 0h2.38c1.17 0 2.31.966 2.31 2.135v5.633c0 1.169-1.14 2.234-2.31 2.234h-2.38c-1.17 0-2.309-1.065-2.309-2.234v-5.633c0-1.17 1.139-2.135 2.31-2.135zm-10.966 0h2.313c1.187 0 2.342.966 2.342 2.135v5.633c0 1.169-1.155 2.234-2.342 2.234h-2.313c-1.188 0-2.343-1.065-2.343-2.234v-5.633c0-1.17 1.155-2.135 2.343-2.135zm-11.034 0h2.38c1.17 0 2.31.966 2.31 2.135v5.633c0 1.169-1.14 2.234-2.31 2.234H7.81c-1.17 0-2.309-1.065-2.309-2.234v-5.633c0-1.17 1.139-2.135 2.31-2.135zm77 0h2.38c1.17 0 2.31.966 2.31 2.135v5.633c0 1.169-1.14 2.234-2.31 2.234h-2.38c-1.17 0-2.309-1.065-2.309-2.234v-5.633c0-1.17 1.139-2.135 2.31-2.135zm-80.216-2c-1.16 0-2.093.874-2.093 2.053v78.82c0 1.18.933 2.129 2.093 2.129h85.812c1.16 0 2.093-.95 2.093-2.128v-78.746c0-1.179-.933-2.128-2.093-2.128z" style="marker:none" color="#000" fill="url(#y)" stroke="url(#z)" stroke-linecap="round" stroke-linejoin="round" overflow="visible"/><rect ry="1.163" width="88" height="81" x="3.5" y="-40.5" opacity=".5" fill="none" stroke="url(#A)" stroke-linecap="round" stroke-linejoin="round"/><path d="M42.09-8.045v13.09L55.183-1.5zM47-19.5c-9.941 0-18 8.059-18 18s8.059 18 18 18 18-8.059 18-18-8.059-18-18-18zm0 3.273c8.134 0 14.727 6.593 14.727 14.727S55.134 13.227 47 13.227 32.273 6.634 32.273-1.5 38.866-16.227 47-16.227z" style="marker:none" color="#000" fill="url(#B)" overflow="visible"/><path d="M42.09-7.045v13.09L55.183-.5zM47-18.5c-9.941 0-18 8.059-18 18s8.059 18 18 18 18-8.059 18-18-8.059-18-18-18zm0 3.273c8.134 0 14.727 6.593 14.727 14.727S55.134 14.227 47 14.227 32.273 7.634 32.273-.5 38.866-15.227 47-15.227z" style="marker:none" color="#000" fill="#d2d2d2" overflow="visible"/><path d="M3-41l.03 51C5.59 9.949 90.057-8.8 92-9.701V-41s-59.412.05-89 0z" opacity=".2" fill="url(#C)" fill-rule="evenodd"/><path style="marker:none" d="M7.499-40.062c-1.661 0-2.999 1.473-2.999 3.303v4.956c0 1.83 1.64 3.303 2.999 3.303h2.999c1.531 0 2.999-1.473 2.999-3.303v-4.956c0-1.83-1.338-3.303-2.999-3.303z" opacity=".15" color="#000" fill="none" stroke="url(#D)" overflow="visible"/><path opacity=".4" fill="url(#E)" d="M43 42h5v4h-5z" transform="matrix(2 0 0 1.5 0 -24.7)"/><path transform="matrix(-2 0 0 -1.5 0 -24.7)" opacity=".4" fill="url(#F)" d="M-5-46h5v4h-5z"/><path opacity=".4" fill="url(#G)" d="M5 42h38v4H5z" transform="matrix(2 0 0 1.5 0 -24.7)"/><path style="marker:none" d="M18.5-40.066c-1.662 0-3 1.474-3 3.305v4.956c0 1.831 1.641 3.305 3 3.305h3c1.229 0 3-1.474 3-3.305v-4.956c0-1.831-1.338-3.305-3-3.305z" opacity=".15" color="#000" fill="none" stroke="url(#H)" overflow="visible"/><path style="marker:none" d="M29.499-40.062c-1.661 0-2.999 1.473-2.999 3.303v4.956c0 1.83 1.64 3.303 2.999 3.303h2.999c1.531 0 2.999-1.473 2.999-3.303v-4.956c0-1.83-1.338-3.303-2.999-3.303z" opacity=".15" color="#000" fill="none" stroke="url(#I)" overflow="visible"/><path style="marker:none" d="M40.499-40.062c-1.661 0-2.999 1.473-2.999 3.303v4.956c0 1.83 1.64 3.303 2.999 3.303h2.999c1.531 0 2.999-1.473 2.999-3.303v-4.956c0-1.83-1.338-3.303-2.999-3.303z" opacity=".15" color="#000" fill="none" stroke="url(#J)" overflow="visible"/><path style="marker:none" d="M51.499-40.062c-1.661 0-2.999 1.473-2.999 3.303v4.956c0 1.83 1.64 3.303 2.999 3.303h2.999c1.531 0 2.999-1.473 2.999-3.303v-4.956c0-1.83-1.338-3.303-2.999-3.303z" opacity=".15" color="#000" fill="none" stroke="url(#K)" overflow="visible"/><path style="marker:none" d="M62.499-40.062c-1.661 0-2.999 1.473-2.999 3.303v4.956c0 1.83 1.64 3.303 2.999 3.303h2.999c1.531 0 2.999-1.473 2.999-3.303v-4.956c0-1.83-1.338-3.303-2.999-3.303z" opacity=".15" color="#000" fill="none" stroke="url(#L)" overflow="visible"/><path style="marker:none" d="M73.499-40.062c-1.661 0-2.999 1.473-2.999 3.303v4.956c0 1.83 1.64 3.303 2.999 3.303h2.999c1.531 0 2.999-1.473 2.999-3.303v-4.956c0-1.83-1.338-3.303-2.999-3.303z" opacity=".15" color="#000" fill="none" stroke="url(#M)" overflow="visible"/><path style="marker:none" d="M84.499-40.062c-1.661 0-2.999 1.473-2.999 3.303v4.956c0 1.83 1.64 3.303 2.999 3.303h2.999c1.531 0 2.999-1.473 2.999-3.303v-4.956c0-1.83-1.338-3.303-2.999-3.303z" opacity=".15" color="#000" fill="none" stroke="url(#N)" overflow="visible"/><path style="marker:none" d="M7.499 28.938c-1.661 0-2.999 1.473-2.999 3.303v4.956c0 1.83 1.64 3.303 2.999 3.303h2.999c1.531 0 2.999-1.473 2.999-3.303V32.24c0-1.83-1.338-3.303-2.999-3.303z" opacity=".15" color="#000" fill="none" stroke="url(#O)" overflow="visible"/><path style="marker:none" d="M18.5 28.934c-1.662 0-3 1.474-3 3.305v4.956c0 1.831 1.641 3.305 3 3.305h3c1.229 0 3-1.474 3-3.305V32.24c0-1.831-1.338-3.305-3-3.305z" opacity=".15" color="#000" fill="none" stroke="url(#P)" overflow="visible"/><path style="marker:none" d="M29.499 28.938c-1.661 0-2.999 1.473-2.999 3.303v4.956c0 1.83 1.64 3.303 2.999 3.303h2.999c1.531 0 2.999-1.473 2.999-3.303V32.24c0-1.83-1.338-3.303-2.999-3.303z" opacity=".15" color="#000" fill="none" stroke="url(#Q)" overflow="visible"/><path style="marker:none" d="M40.499 28.938c-1.661 0-2.999 1.473-2.999 3.303v4.956c0 1.83 1.64 3.303 2.999 3.303h2.999c1.531 0 2.999-1.473 2.999-3.303V32.24c0-1.83-1.338-3.303-2.999-3.303z" opacity=".15" color="#000" fill="none" stroke="url(#R)" overflow="visible"/><path style="marker:none" d="M51.499 28.938c-1.661 0-2.999 1.473-2.999 3.303v4.956c0 1.83 1.64 3.303 2.999 3.303h2.999c1.531 0 2.999-1.473 2.999-3.303V32.24c0-1.83-1.338-3.303-2.999-3.303z" opacity=".15" color="#000" fill="none" stroke="url(#S)" overflow="visible"/><path style="marker:none" d="M62.499 28.938c-1.661 0-2.999 1.473-2.999 3.303v4.956c0 1.83 1.64 3.303 2.999 3.303h2.999c1.531 0 2.999-1.473 2.999-3.303V32.24c0-1.83-1.338-3.303-2.999-3.303z" opacity=".15" color="#000" fill="none" stroke="url(#T)" overflow="visible"/><path style="marker:none" d="M73.499 28.938c-1.661 0-2.999 1.473-2.999 3.303v4.956c0 1.83 1.64 3.303 2.999 3.303h2.999c1.531 0 2.999-1.473 2.999-3.303V32.24c0-1.83-1.338-3.303-2.999-3.303z" opacity=".15" color="#000" fill="none" stroke="url(#U)" overflow="visible"/><path style="marker:none" d="M84.499 28.938c-1.661 0-2.999 1.473-2.999 3.303v4.956c0 1.83 1.64 3.303 2.999 3.303h2.999c1.531 0 2.999-1.473 2.999-3.303V32.24c0-1.83-1.338-3.303-2.999-3.303z" opacity=".15" color="#000" fill="none" stroke="url(#V)" overflow="visible"/></g></svg>