<svg xmlns="http://www.w3.org/2000/svg" xmlns:xlink="http://www.w3.org/1999/xlink" width="96" height="96" viewBox="0 0 96 96"><defs><radialGradient xlink:href="#a" id="j" gradientUnits="userSpaceOnUse" gradientTransform="matrix(.03128 0 0 .02053 64.045 1036.684)" cx="605.714" cy="486.648" fx="605.714" fy="486.648" r="117.143"/><linearGradient id="a"><stop offset="0"/><stop offset="1" stop-opacity="0"/></linearGradient><radialGradient xlink:href="#a" id="i" gradientUnits="userSpaceOnUse" gradientTransform="matrix(-.03128 0 0 .02053 31.85 1036.684)" cx="605.714" cy="486.648" fx="605.714" fy="486.648" r="117.143"/><linearGradient id="b"><stop offset="0" stop-opacity="0"/><stop offset=".5"/><stop offset="1" stop-opacity="0"/></linearGradient><linearGradient y2="609.505" x2="302.857" y1="366.648" x1="302.857" gradientTransform="matrix(.14476 0 0 .02053 -4.373 1036.684)" gradientUnits="userSpaceOnUse" id="h" xlink:href="#b"/><linearGradient id="e"><stop offset="0" stop-color="#a0a0a0"/><stop offset="1" stop-color="#bebebe"/></linearGradient><linearGradient id="d"><stop offset="0" stop-color="#f4f4f4"/><stop offset="1" stop-color="#dbdbdb"/></linearGradient><linearGradient id="c"><stop offset="0" stop-color="#fff"/><stop offset=".036" stop-color="#fff" stop-opacity=".235"/><stop offset=".951" stop-color="#fff" stop-opacity=".157"/><stop offset="1" stop-color="#fff" stop-opacity=".392"/></linearGradient><linearGradient xlink:href="#c" id="m" gradientUnits="userSpaceOnUse" gradientTransform="matrix(1.86486 0 0 2.35136 3.243 945.93)" x1="24" y1="5.564" x2="24" y2="43"/><linearGradient xlink:href="#d" id="k" gradientUnits="userSpaceOnUse" gradientTransform="matrix(2.02857 0 0 1.9338 -.686 952.984)" x1="25.132" y1=".985" x2="25.132" y2="47.013"/><linearGradient xlink:href="#e" id="l" gradientUnits="userSpaceOnUse" gradientTransform="matrix(1.63806 0 0 1.80974 119.832 950.829)" x1="-51.786" y1="50.786" x2="-51.786" y2="2.906"/><radialGradient r="12.5" fy="13.643" fx="15.321" cy="13.643" cx="15.321" gradientTransform="matrix(0 2.71864 -4.06579 0 70.909 -47.577)" gradientUnits="userSpaceOnUse" id="n" xlink:href="#f"/><linearGradient id="f"><stop offset="0" stop-color="#a3c0d0"/><stop offset="1" stop-color="#427da1"/></linearGradient><linearGradient xlink:href="#g" id="p" gradientUnits="userSpaceOnUse" x1="17.072" y1="6.002" x2="17.072" y2="40.011" gradientTransform="matrix(1.00487 0 0 1.01108 -.295 -16.678)"/><linearGradient id="g"><stop offset="0" stop-color="#828282"/><stop offset="1" stop-color="#6c6c6c"/></linearGradient><linearGradient xlink:href="#g" id="o" gradientUnits="userSpaceOnUse" gradientTransform="translate(0 -16)" x1="17.072" y1="6.002" x2="17.072" y2="40.011"/></defs><path style="marker:none" opacity=".3" fill="url(#h)" overflow="visible" d="M12.998 1044.211h69.899v4.986H12.998z" transform="matrix(1.00403 0 0 1.00283 -.14 -959.166)"/><path d="M12.998 1044.212v4.985c-1.61.013-3.894-1.118-3.894-2.494 0-1.376 1.798-2.491 3.894-2.491z" style="marker:none" opacity=".3" fill="url(#i)" overflow="visible" transform="matrix(1.00403 0 0 1.00283 -.14 -959.166)"/><path d="M82.897 1044.212v4.985c1.61.013 3.894-1.118 3.894-2.494 0-1.376-1.797-2.491-3.894-2.491z" style="marker:none" opacity=".3" fill="url(#j)" overflow="visible" transform="matrix(1.00403 0 0 1.00283 -.14 -959.166)"/><path d="M12.5 957.862c16.27 0 71 .008 71 .008v88.992h-71v-88.998z" fill="url(#k)" stroke="url(#l)" stroke-linejoin="round" transform="translate(0 -956.362)"/><path d="M82.5 1045.862h-69v-87h69z" fill="none" stroke="url(#m)" stroke-linecap="round" transform="translate(0 -956.362)"/><g><path d="M15.615-4.739h3.015v41.82h-3.015zm3.015-3.01h30.48v3.019L18.63-4.74z" fill="url(#n)" transform="matrix(1.49275 0 0 1.49454 -.31 24.582)"/><path fill="#c0d4df" d="M22.5 12.5h5v5.001h-5z"/><path d="M15.95-7.416h32.826" opacity=".2" fill="#fff" fill-rule="evenodd" stroke="#fff" stroke-width=".67" stroke-linecap="square" stroke-linejoin="round" transform="matrix(1.49275 0 0 1.49454 -.31 24.582)"/><path d="M38.727-8.419V37.75M28.678-8.419V37.75" fill="none" stroke="#2c465d" stroke-width=".67" stroke-opacity=".324" transform="matrix(1.49275 0 0 1.49454 -.31 24.582)"/><path d="M49.2-4.739H15m3.63-3.01v45.428" fill="none" stroke="url(#o)" stroke-width=".67" transform="matrix(1.49275 0 0 1.49454 -.31 24.582)"/><path d="M49.78-.724H14.945M49.78 35.407H14.945M49.78 31.393H14.945M49.78 27.378H14.945M49.78 23.363H14.945M49.78 19.349H14.945M49.78 15.334H14.945M49.78 11.32H14.945M49.78 7.305H14.945M49.78 3.29H14.945" fill="none" stroke="#2c465d" stroke-width=".67" stroke-opacity=".324" transform="matrix(1.49275 0 0 1.49454 -.31 24.582)"/><path fill="none" stroke="url(#p)" stroke-width=".67" stroke-linecap="square" d="M15.28-8.084h34.165v45.498H15.28z" transform="matrix(1.49275 0 0 1.49454 -.31 24.582)"/></g></svg>