<svg xmlns="http://www.w3.org/2000/svg" xmlns:xlink="http://www.w3.org/1999/xlink" width="96" height="96"><defs><linearGradient xlink:href="#a" id="v" gradientUnits="userSpaceOnUse" gradientTransform="matrix(1.38873 0 0 1.75868 2.214 -55.7)" x1="24" y1="5.564" x2="24" y2="43"/><linearGradient id="a"><stop offset="0" stop-color="#fff"/><stop offset=".036" stop-color="#fff" stop-opacity=".235"/><stop offset=".951" stop-color="#fff" stop-opacity=".157"/><stop offset="1" stop-color="#fff" stop-opacity=".392"/></linearGradient><linearGradient id="b"><stop offset="0"/><stop offset="1" stop-opacity="0"/></linearGradient><linearGradient id="c"><stop offset="0" stop-opacity="0"/><stop offset=".5"/><stop offset="1" stop-opacity="0"/></linearGradient><linearGradient xlink:href="#d" id="u" gradientUnits="userSpaceOnUse" gradientTransform="matrix(1.621 0 0 1.65916 -4.39 -50.57)" x1="24.239" y1="44.11" x2="24.239" y2=".191"/><linearGradient id="d"><stop offset="0" stop-color="#294351"/><stop offset="1" stop-color="#637a87"/></linearGradient><linearGradient xlink:href="#e" id="t" gradientUnits="userSpaceOnUse" spreadMethod="reflect" x1="26.189" y1="30.455" x2="44.25" y2="16.135" gradientTransform="matrix(1.51063 0 0 1.51272 -.34 -47.256)"/><linearGradient id="e"><stop offset="0"/><stop offset="1" stop-opacity="0"/></linearGradient><linearGradient xlink:href="#f" id="s" gradientUnits="userSpaceOnUse" gradientTransform="matrix(1.82012 0 0 1.37496 -98.368 -39.893)" spreadMethod="reflect" x1="84.263" y1="38.469" x2="103.492" y2="16.65"/><linearGradient id="f"><stop offset="0" stop-color="#fff"/><stop offset="1" stop-color="#fff" stop-opacity="0"/></linearGradient><linearGradient xlink:href="#g" id="r" gradientUnits="userSpaceOnUse" gradientTransform="matrix(1.82012 0 0 1.37496 -98.566 -38.531)" spreadMethod="reflect" x1="75.854" y1="28" x2="91" y2="12"/><linearGradient id="g"><stop offset="0"/><stop offset="1" stop-opacity="0"/></linearGradient><radialGradient r="18" fy="11.461" fx="14.353" cy="11.461" cx="14.353" gradientTransform="matrix(0 4.77778 -8.0687 0 112.477 -106.576)" gradientUnits="userSpaceOnUse" id="p" xlink:href="#h"/><linearGradient id="h"><stop offset="0" stop-color="#85c2cf"/><stop offset=".254" stop-color="#74a4be"/><stop offset=".709" stop-color="#5177a0"/><stop offset="1" stop-color="#2c5889"/></linearGradient><linearGradient y2="2.782" x2="-51.98" y1="70.008" x1="-51.16" gradientTransform="matrix(1.21983 0 0 1.35363 89.406 -51.765)" gradientUnits="userSpaceOnUse" id="q" xlink:href="#i"/><linearGradient id="i"><stop offset="0" stop-color="#2e4a5a"/><stop offset="1" stop-color="#6e8796"/></linearGradient><linearGradient id="j"><stop offset="0" stop-color="#fff"/><stop offset="1" stop-color="#fff" stop-opacity="0"/></linearGradient><linearGradient y2="24.628" x2="20.055" y1="15.298" x1="16.626" gradientTransform="matrix(1.13475 0 0 2.12452 8.496 -58.943)" gradientUnits="userSpaceOnUse" id="w" xlink:href="#j"/><radialGradient xlink:href="#k" id="o" gradientUnits="userSpaceOnUse" gradientTransform="matrix(.04732 0 0 .03114 52.865 27.55)" cx="605.714" cy="486.648" fx="605.714" fy="486.648" r="117.143"/><linearGradient id="k"><stop offset="0"/><stop offset="1" stop-opacity="0"/></linearGradient><radialGradient xlink:href="#k" id="n" gradientUnits="userSpaceOnUse" gradientTransform="matrix(-.04732 0 0 .03114 43.134 27.55)" cx="605.714" cy="486.648" fx="605.714" fy="486.648" r="117.143"/><linearGradient id="l"><stop offset="0" stop-opacity="0"/><stop offset=".5"/><stop offset="1" stop-opacity="0"/></linearGradient><linearGradient y2="609.505" x2="302.857" y1="366.648" x1="302.857" gradientTransform="matrix(.13828 0 0 .03114 -1.98 27.55)" gradientUnits="userSpaceOnUse" id="m" xlink:href="#l"/></defs><path style="marker:none" opacity=".3" fill="url(#m)" overflow="visible" d="M14.614 38.968h66.77v7.564h-66.77z" transform="translate(0 48)"/><path d="M14.614 38.969v7.563c-2.437.014-5.891-1.695-5.891-3.782 0-2.088 2.72-3.781 5.891-3.781z" style="marker:none" opacity=".3" fill="url(#n)" overflow="visible" transform="translate(0 48)"/><path d="M81.385 38.969v7.563c2.437.014 5.891-1.695 5.891-3.782 0-2.088-2.72-3.781-5.891-3.781z" style="marker:none" opacity=".3" fill="url(#o)" overflow="visible" transform="translate(0 48)"/><path style="marker:none" d="M12.5-46.5l71 .004V42.5h-71v-89.001z" color="#000" fill="url(#p)" stroke="url(#q)" stroke-linejoin="round" overflow="visible" transform="translate(0 48)"/><path style="marker:none" d="M37.527-18.3C29.35-8.064 21.177 2.184 13 12.42V43.7h58.267c5.374-6.727 6.202-7.752 11.733-14.676V.667C66.95-6.03 47.949-13.951 37.527-18.3z" opacity=".1" fill="url(#r)" overflow="visible" transform="translate(0 48)"/><path style="marker:none" d="M37.527-20C29.35-9.764 21.177.484 13 10.72V42h58.267c5.374-6.727 6.202-7.752 11.733-14.676V-1.033C66.95-7.73 47.949-15.651 37.527-20z" opacity=".4" fill="url(#s)" overflow="visible" transform="translate(0 48)"/><path d="M38.43-10.57L76.201 6.18l-37.77-16.75zm-4.025 5.355l43.92 19.477-43.92-19.477zM30.316.225L44.37 6.457 30.316.225zM26.291 5.58l43.92 19.477L26.29 5.58zm-4.09 5.44L61.73 28.549l-39.528-17.53zm-4.056 5.397l36.014 15.971-36.014-15.97zm-4.026 5.356L57.161 40.86 14.119 21.773z" opacity=".1" fill="none" stroke="url(#t)" transform="translate(0 48)"/><path style="-inkscape-font-specification:Droid Sans Bold" d="M65.614 72H55.23c-1.908-7.939-3.96-15.845-5.769-23.806-.577-2.507-1.185-6.798-1.525-8.343-1.104 8.59-3.507 16.911-5.475 25.318L40.8 72H30.387L20 28.042h8.999c2.405 12.074 5.125 24.088 7.022 36.26.805-5.748 1.817-11.466 3.3-17.076l4.666-19.184h8.026c2.042 8.48 4.162 16.944 6.155 25.437.71 3.59 1.273 7.208 1.84 10.824 1.79-11.97 4.518-23.762 6.863-35.625-.05-1.153 1.39-.442 2.104-.636H76L65.614 72z" font-size="30.514" font-weight="700" opacity=".4" fill="#fff" font-family="Droid Sans"/><path style="-inkscape-font-specification:Droid Sans Bold" d="M65.614 23H55.23C53.32 15.061 51.269 7.155 49.46-.806c-.577-2.507-1.185-6.798-1.525-8.343-1.104 8.59-3.507 16.911-5.475 25.318L40.8 23H30.387L20-20.958h8.999c2.405 12.074 5.125 24.088 7.022 36.26.805-5.748 1.817-11.466 3.3-17.076l4.666-19.184h8.026c2.042 8.48 4.162 16.944 6.155 25.437.71 3.59 1.273 7.208 1.84 10.824 1.79-11.97 4.518-23.762 6.863-35.625-.05-1.153 1.39-.442 2.104-.636H76L65.614 23z" font-size="30.514" font-weight="700" fill="url(#u)" font-family="Droid Sans" transform="translate(0 48)"/><path d="M82.5 41.5h-69v-87h69z" opacity=".5" fill="none" stroke="url(#v)" stroke-linecap="round" stroke-linejoin="round" transform="translate(0 48)"/><path d="M13-46V5.661c.004.382.094.744.248.997s.357.374.562.335l68.57-20.239c.354-.104.615-.666.62-1.331V-46z" opacity=".2" fill="url(#w)" fill-rule="evenodd" transform="translate(0 48)"/></svg>