<svg xmlns="http://www.w3.org/2000/svg" xmlns:xlink="http://www.w3.org/1999/xlink" width="96" height="96"><defs><linearGradient id="b"><stop offset="0" stop-color="#fff"/><stop offset="1" stop-color="#fff" stop-opacity="0"/></linearGradient><linearGradient id="d"><stop offset="0" stop-color="#f9c590"/><stop offset=".397" stop-color="#f19860"/><stop offset="1" stop-color="#ce5d36"/></linearGradient><linearGradient id="c"><stop offset="0" stop-color="#71171c"/><stop offset="1" stop-color="#ed8137"/></linearGradient><linearGradient id="a"><stop offset="0" stop-color="#fff"/><stop offset="1" stop-color="#fff" stop-opacity="0"/></linearGradient><radialGradient xlink:href="#e" id="h" gradientUnits="userSpaceOnUse" gradientTransform="matrix(2.00378 0 0 1.4 27.988 -17.4)" cx="4.993" cy="43.5" fx="4.993" fy="43.5" r="2.5"/><linearGradient id="e"><stop offset="0" stop-color="#181818"/><stop offset="1" stop-color="#181818" stop-opacity="0"/></linearGradient><radialGradient xlink:href="#f" id="i" gradientUnits="userSpaceOnUse" gradientTransform="matrix(2.00378 0 0 1.4 -20.012 -104.4)" cx="4.993" cy="43.5" fx="4.993" fy="43.5" r="2.5"/><linearGradient id="f"><stop offset="0" stop-color="#181818"/><stop offset="1" stop-color="#181818" stop-opacity="0"/></linearGradient><linearGradient xlink:href="#g" id="j" gradientUnits="userSpaceOnUse" x1="25.058" y1="47.028" x2="25.058" y2="39.999"/><linearGradient id="g"><stop offset="0" stop-color="#181818" stop-opacity="0"/><stop offset=".5" stop-color="#181818"/><stop offset="1" stop-color="#181818" stop-opacity="0"/></linearGradient><linearGradient xlink:href="#a" id="n" gradientUnits="userSpaceOnUse" gradientTransform="matrix(1.82857 0 0 2.78688 4.114 -3.634)" x1="16.626" y1="15.298" x2="20.055" y2="24.628"/><linearGradient xlink:href="#b" id="m" gradientUnits="userSpaceOnUse" gradientTransform="matrix(2.5726 0 0 2.8236 -13.717 -14.16)" x1="24" y1="14.203" x2="24" y2="35.721"/><radialGradient xlink:href="#d" id="k" gradientUnits="userSpaceOnUse" gradientTransform="matrix(0 4.91995 -5.33228 0 46.996 -97.571)" cx="22.019" cy=".563" fx="22.019" fy=".563" r="22"/><linearGradient xlink:href="#c" id="l" gradientUnits="userSpaceOnUse" gradientTransform="matrix(2.0068 0 0 2.45627 134.76 -16.652)" x1="-51.786" y1="41.798" x2="-51.786" y2="17.555"/></defs><g opacity=".4"><path fill="url(#h)" d="M38 40h5v7h-5z" transform="matrix(2.52632 0 0 1.08014 -12.632 36.233)"/><path transform="matrix(-2.52632 0 0 -1.08014 -12.632 36.233)" fill="url(#i)" d="M-10-47h5v7h-5z"/><path fill="url(#j)" d="M10 40h28v7H10z" transform="matrix(2.52632 0 0 1.08014 -12.632 36.233)"/></g><path style="marker:none" color="#000" fill="url(#k)" stroke="url(#l)" stroke-linejoin="round" overflow="visible" d="M4.5 12.5h87v71h-87z"/><path style="marker:none" opacity=".6" color="#000" fill="none" stroke="url(#m)" stroke-linejoin="round" overflow="visible" d="M5.5 13.5h85v69h-85z"/><path d="M8 16h60.632L88 35.199V80H8z" fill="#fff"/><path d="M7.5 15.5h61.329L88.5 35v45.5h-81z" opacity=".2" fill="#fff" stroke="#000"/><path d="M22 28h45l2 2H22z" fill="#d37241"/><path style="marker:none" d="M79 54a14 14 0 1 1-7.406-12.35L65 54z" color="#000" fill="#d37241" overflow="visible"/><path d="M18 66h30v2H18zM18 42h30v2H18zM18 50h26v2H18zM18 58h26v2H18z" fill="#d37241"/><path d="M6 13v50.686c.005.375.113.73.298.978.184.249.429.368.673.329l82.286-19.857c.423-.102.737-.653.743-1.306V13z" opacity=".2" fill="url(#n)" fill-rule="evenodd"/></svg>