<svg xmlns="http://www.w3.org/2000/svg" xmlns:xlink="http://www.w3.org/1999/xlink" width="96" height="96"><defs><linearGradient xlink:href="#a" id="n" gradientUnits="userSpaceOnUse" gradientTransform="matrix(1.86486 0 0 2.35135 3.243 -58.432)" x1="24" y1="5.564" x2="24" y2="43"/><linearGradient id="a"><stop offset="0" stop-color="#fff"/><stop offset=".036" stop-color="#fff" stop-opacity=".235"/><stop offset=".951" stop-color="#fff" stop-opacity=".157"/><stop offset="1" stop-color="#fff" stop-opacity=".392"/></linearGradient><linearGradient id="b"><stop offset="0"/><stop offset="1" stop-opacity="0"/></linearGradient><linearGradient id="c"><stop offset="0" stop-opacity="0"/><stop offset=".5"/><stop offset="1" stop-opacity="0"/></linearGradient><radialGradient r="18" fy="11.49" fx="14.239" cy="11.49" cx="14.239" gradientTransform="matrix(0 6.4286 -10.74842 0 149.832 -127.4)" gradientUnits="userSpaceOnUse" id="l" xlink:href="#d"/><linearGradient y2="2.906" x2="-51.786" y1="53.624" x1="-51.786" gradientTransform="matrix(1.63806 0 0 1.80977 119.848 -53.534)" gradientUnits="userSpaceOnUse" id="m" xlink:href="#e"/><linearGradient id="f"><stop offset="0" stop-color="#fff"/><stop offset="1" stop-color="#fff" stop-opacity="0"/></linearGradient><linearGradient y2="24.628" x2="20.055" y1="15.298" x1="16.626" gradientTransform="matrix(1.48027 0 0 2.78688 12.473 -62.634)" gradientUnits="userSpaceOnUse" id="o" xlink:href="#f"/><linearGradient id="e"><stop offset="0" stop-color="#185f9a"/><stop offset="1" stop-color="#599ec9"/></linearGradient><linearGradient id="d"><stop offset="0" stop-color="#90dbec"/><stop offset=".262" stop-color="#55c1ec"/><stop offset=".705" stop-color="#3689e6"/><stop offset="1" stop-color="#2b63a0"/></linearGradient><linearGradient y2="609.505" x2="302.857" y1="366.648" x1="302.857" gradientTransform="matrix(.14476 0 0 .02053 -4.373 1036.684)" gradientUnits="userSpaceOnUse" id="i" xlink:href="#g"/><linearGradient id="g"><stop offset="0" stop-opacity="0"/><stop offset=".5"/><stop offset="1" stop-opacity="0"/></linearGradient><radialGradient xlink:href="#h" id="j" gradientUnits="userSpaceOnUse" gradientTransform="matrix(-.03128 0 0 .02053 31.85 1036.684)" cx="605.714" cy="486.648" fx="605.714" fy="486.648" r="117.143"/><linearGradient id="h"><stop offset="0"/><stop offset="1" stop-opacity="0"/></linearGradient><radialGradient r="117.143" fy="486.648" fx="605.714" cy="486.648" cx="605.714" gradientTransform="matrix(.03128 0 0 .02053 64.045 1036.684)" gradientUnits="userSpaceOnUse" id="k" xlink:href="#h"/></defs><path style="marker:none" opacity=".3" fill="url(#i)" overflow="visible" d="M12.998 1044.211h69.899v4.986H12.998z" transform="matrix(1.00403 0 0 1.00283 -.14 -959.166)"/><path d="M12.998 1044.212v4.985c-1.61.013-3.894-1.118-3.894-2.494 0-1.376 1.798-2.491 3.894-2.491z" style="marker:none" opacity=".3" fill="url(#j)" overflow="visible" transform="matrix(1.00403 0 0 1.00283 -.14 -959.166)"/><path d="M82.897 1044.212v4.985c1.61.013 3.894-1.118 3.894-2.494 0-1.376-1.797-2.491-3.894-2.491z" style="marker:none" opacity=".3" fill="url(#k)" overflow="visible" transform="matrix(1.00403 0 0 1.00283 -.14 -959.166)"/><path style="marker:none" d="M12.5-46.5c16.27 0 71 .006 71 .006V42.5h-71v-89z" color="#000" fill="url(#l)" stroke="url(#m)" stroke-linejoin="round" overflow="visible" transform="translate(0 48)"/><path d="M82.5 41.5h-69v-87h69z" opacity=".5" fill="none" stroke="url(#n)" stroke-linecap="round" stroke-linejoin="round" transform="translate(0 48)"/><path d="M16 5h43.947L80 24.974V87H16z" fill="#fff"/><path d="M15.5 4.5h44.687L80.5 24.744V87.5h-65z" opacity=".2" fill="#fff" stroke="#000"/><path d="M24 16h40l2 2H24zM24 22h48v2H24zM24 28h48v2H24zM24 34h48v2H24zM24 40h48v2H24z" fill="#4196d3"/><path d="M14-46V4.686c.004.375.091.73.24.978.15.249.348.368.546.329L81.4-13.864c.342-.102.596-.653.601-1.306V-46z" opacity=".2" fill="url(#o)" fill-rule="evenodd" transform="translate(0 48)"/><path d="M24 46h48v2H24zM24 52h48v2H24zM24 58h48v2H24zM24 64h48v2H24zM24 70h48v2H24zM24 76h48v2H24z" fill="#4196d3"/></svg>