<svg xmlns="http://www.w3.org/2000/svg" xmlns:xlink="http://www.w3.org/1999/xlink" width="96" height="96"><defs><linearGradient xlink:href="#a" id="l" gradientUnits="userSpaceOnUse" gradientTransform="matrix(1.86486 0 0 2.35135 3.243 -58.354)" x1="24" y1="5.564" x2="24" y2="43"/><linearGradient id="a"><stop offset="0" stop-color="#fff"/><stop offset=".036" stop-color="#fff" stop-opacity=".235"/><stop offset=".951" stop-color="#fff" stop-opacity=".157"/><stop offset="1" stop-color="#fff" stop-opacity=".392"/></linearGradient><radialGradient xlink:href="#b" id="i" gradientUnits="userSpaceOnUse" gradientTransform="matrix(.03097 0 0 .01993 35.184 34.033)" cx="605.714" cy="486.648" fx="605.714" fy="486.648" r="117.143"/><linearGradient id="b"><stop offset="0"/><stop offset="1" stop-opacity="0"/></linearGradient><radialGradient xlink:href="#b" id="h" gradientUnits="userSpaceOnUse" gradientTransform="matrix(-.03097 0 0 .01993 28.816 34.033)" cx="605.714" cy="486.648" fx="605.714" fy="486.648" r="117.143"/><linearGradient id="c"><stop offset="0" stop-opacity="0"/><stop offset=".5"/><stop offset="1" stop-opacity="0"/></linearGradient><linearGradient y2="609.505" x2="302.857" y1="366.648" x1="302.857" gradientTransform="matrix(.0905 0 0 .01993 -.708 34.033)" gradientUnits="userSpaceOnUse" id="g" xlink:href="#c"/><linearGradient id="d"><stop offset="0" stop-color="#fff"/><stop offset="1" stop-color="#dcdcdc"/></linearGradient><linearGradient xlink:href="#d" id="m" gradientUnits="userSpaceOnUse" gradientTransform="matrix(1.89628 0 0 2.31564 3.523 -57.578)" x1="23.97" y1="3.981" x2="23.97" y2="44.024"/><radialGradient r="20" fy="8.45" fx="7.496" cy="8.45" cx="7.496" gradientTransform="matrix(0 5.80025 -6.96076 0 106.817 -88.583)" gradientUnits="userSpaceOnUse" id="j" xlink:href="#e"/><linearGradient id="e"><stop offset="0" stop-color="#f89b7e"/><stop offset=".262" stop-color="#e35d4f"/><stop offset=".661" stop-color="#c6262e"/><stop offset="1" stop-color="#690b2c"/></linearGradient><linearGradient y2="3.899" x2="24" y1="44" x1="24" gradientTransform="matrix(1.8205 0 0 2.28176 4.308 -56.703)" gradientUnits="userSpaceOnUse" id="k" xlink:href="#f"/><linearGradient id="f"><stop offset="0" stop-color="#791235"/><stop offset="1" stop-color="#dd3b27"/></linearGradient></defs><path style="marker:none" opacity=".3" fill="url(#g)" overflow="visible" d="M10.152 41.339h43.697v4.839H10.152z" transform="matrix(1.51727 0 0 1.49229 -.553 24.69)"/><path d="M10.152 41.339v4.839c-1.595.009-3.856-1.084-3.856-2.42 0-1.336 1.78-2.42 3.856-2.42z" style="marker:none" opacity=".3" fill="url(#h)" overflow="visible" transform="matrix(1.51727 0 0 1.49229 -.553 24.69)"/><path d="M53.848 41.339v4.839c1.595.009 3.856-1.084 3.856-2.42 0-1.336-1.78-2.42-3.856-2.42z" style="marker:none" opacity=".3" fill="url(#i)" overflow="visible" transform="matrix(1.51727 0 0 1.49229 -.553 24.69)"/><path style="marker:none" d="M12.5-46.44c16.27 0 71 .005 71 .005V42.56h-71v-89z" color="#000" fill="url(#j)" stroke="url(#k)" stroke-linecap="round" stroke-linejoin="round" overflow="visible" transform="translate(0 48)"/><path d="M82.5 41.579h-69v-87h69z" opacity=".5" fill="none" stroke="url(#l)" stroke-linecap="round" stroke-linejoin="round" transform="translate(0 48)"/><path d="M55.797 5.6C31.498 31.36 17.617 34.995 13 35.396v9.258c3.485-.602 12.245-2.69 21.575-9.908 11.962-9.258 26.087-26.39 26.087-26.39-3.706 8.983-4.736 38.421-4.923 78.244h24.799c.948 0 1.803-.447 2.462-1.157-3.903-11.548-6.624-26.732-8.677-40.5-1.946-18.248.928-34.203 1.994-39.343zM13 50.512v10.197c8.742 0 23.39 14.588 31.536 29.204L49.76 86.6C41.713 70.657 19.674 50.512 13 50.512z" opacity=".05" fill-rule="evenodd"/><path d="M55.482 4.6C31.365 30.262 17.587 33.885 13.005 34.284v9.222c3.459-.599 12.153-2.678 21.413-9.87C46.29 24.413 60.353 7.613 60.353 7.613c-3.263 11.07-4.037 41.768-4.222 82.462L80.037 87.6c1.223-.127 2.29-.743 2.968-1.873-4.176-11.669-7.003-27.577-9.136-41.933-1.932-18.179.921-34.073 1.979-39.194zM13.005 49.342v10.159c9.133 0 24.314 14.86 32.286 30.537l5.245-2.438c-6.854-16.17-30.578-38.258-37.531-38.258z" opacity=".1" fill-rule="evenodd"/><path d="M56.235 3C31.675 28.866 17.667 32.55 13 32.952v9.256c3.523-.604 12.38-2.65 21.81-9.899C46.904 23.014 61.383 5.314 61.383 5.314 57.49 14.684 56.286 46.66 56.171 89h25.092A3.26 3.26 0 0 0 83 88.486V81.03c-3.564-11.29-6.094-25.519-8.042-38.5C72.99 24.204 75.939 8.161 77.017 3zM13 48.121v10.22c9.754 0 24.962 14.775 32.864 31.659l6.318-1C46.686 72.594 20.421 48.121 13 48.121z" opacity=".25" fill-rule="evenodd"/><path d="M56.235-46C31.675-20.225 17.667-16.555 13-16.154v9.222c3.523-.601 12.38-2.703 21.81-9.927 12.093-9.262 26.572-26.835 26.572-26.835C57.418-34.184 56.248-1.37 56.171 42h25.35A2.94 2.94 0 0 0 83 41.616v-9.927c-3.55-11.244-6.098-25.395-8.042-38.3-1.968-18.26.981-34.246 2.059-39.389H56.235zM13-1.103V9.144c10.197 0 25.873 14.994 33.456 32.856h6.37C49.261 25.761 20.778-1.103 13-1.103z" fill="url(#m)" fill-rule="evenodd" transform="translate(0 48)"/><path d="M78.11 2.01C68.456 9.107 36.864 30.727 13 27.99v19.595s49.508 8.92 70-7.523V2.515a3.294 3.294 0 0 0-1.737-.506H78.11zM83 50c-8.954 11.19-17.888 25.36-24 40h7.654C71.391 80.377 77.423 69.93 83 62.571V50z" opacity=".1" fill-rule="evenodd"/></svg>