<svg xmlns="http://www.w3.org/2000/svg" xmlns:xlink="http://www.w3.org/1999/xlink" width="96" height="96"><defs><linearGradient xlink:href="#a" id="s" gradientUnits="userSpaceOnUse" gradientTransform="matrix(1.38873 0 0 1.75868 2.214 -55.7)" x1="24" y1="5.564" x2="24" y2="43"/><linearGradient id="a"><stop offset="0" stop-color="#fff"/><stop offset=".036" stop-color="#fff" stop-opacity=".235"/><stop offset=".951" stop-color="#fff" stop-opacity=".157"/><stop offset="1" stop-color="#fff" stop-opacity=".392"/></linearGradient><linearGradient id="b"><stop offset="0"/><stop offset="1" stop-opacity="0"/></linearGradient><linearGradient id="c"><stop offset="0" stop-opacity="0"/><stop offset=".5"/><stop offset="1" stop-opacity="0"/></linearGradient><linearGradient xlink:href="#d" id="r" gradientUnits="userSpaceOnUse" gradientTransform="matrix(1.82012 0 0 1.37496 -98.368 -39.893)" spreadMethod="reflect" x1="84.263" y1="38.469" x2="103.492" y2="16.65"/><linearGradient id="d"><stop offset="0" stop-color="#fff"/><stop offset="1" stop-color="#fff" stop-opacity="0"/></linearGradient><linearGradient xlink:href="#e" id="q" gradientUnits="userSpaceOnUse" gradientTransform="matrix(1.82012 0 0 1.37496 -98.566 -38.531)" spreadMethod="reflect" x1="75.854" y1="28" x2="91" y2="12"/><linearGradient id="e"><stop offset="0"/><stop offset="1" stop-opacity="0"/></linearGradient><radialGradient r="18" fy="11.461" fx="14.353" cy="11.461" cx="14.353" gradientTransform="matrix(0 4.77778 -8.0687 0 112.477 -106.576)" gradientUnits="userSpaceOnUse" id="o" xlink:href="#f"/><linearGradient id="f"><stop offset="0" stop-color="#f9c590"/><stop offset=".254" stop-color="#f19860"/><stop offset=".709" stop-color="#d69973"/><stop offset="1" stop-color="#ce5d36"/></linearGradient><linearGradient y2="2.782" x2="-51.98" y1="70.008" x1="-51.16" gradientTransform="matrix(1.21983 0 0 1.35363 89.406 -51.765)" gradientUnits="userSpaceOnUse" id="p" xlink:href="#g"/><linearGradient id="g"><stop offset="0" stop-color="#71171c"/><stop offset="1" stop-color="#ed8137"/></linearGradient><linearGradient id="h"><stop offset="0" stop-color="#fff"/><stop offset="1" stop-color="#fff" stop-opacity="0"/></linearGradient><linearGradient y2="24.628" x2="20.055" y1="15.298" x1="16.626" gradientTransform="matrix(1.13475 0 0 2.12452 8.496 -58.943)" gradientUnits="userSpaceOnUse" id="t" xlink:href="#h"/><radialGradient xlink:href="#i" id="n" gradientUnits="userSpaceOnUse" gradientTransform="matrix(.04732 0 0 .03114 52.865 27.55)" cx="605.714" cy="486.648" fx="605.714" fy="486.648" r="117.143"/><linearGradient id="i"><stop offset="0"/><stop offset="1" stop-opacity="0"/></linearGradient><radialGradient xlink:href="#i" id="m" gradientUnits="userSpaceOnUse" gradientTransform="matrix(-.04732 0 0 .03114 43.134 27.55)" cx="605.714" cy="486.648" fx="605.714" fy="486.648" r="117.143"/><linearGradient id="j"><stop offset="0" stop-opacity="0"/><stop offset=".5"/><stop offset="1" stop-opacity="0"/></linearGradient><linearGradient y2="609.505" x2="302.857" y1="366.648" x1="302.857" gradientTransform="matrix(.13828 0 0 .03114 -1.98 27.55)" gradientUnits="userSpaceOnUse" id="l" xlink:href="#j"/><linearGradient xlink:href="#k" id="u" gradientUnits="userSpaceOnUse" gradientTransform="matrix(2.1216 0 0 2.01954 5.756 -46.987)" x1="24.239" y1="42.236" x2="24.239" y2="1.598"/><linearGradient id="k"><stop offset="0" stop-color="#71171c"/><stop offset="1" stop-color="#ec7422"/></linearGradient><linearGradient xlink:href="#k" id="v" gradientUnits="userSpaceOnUse" gradientTransform="matrix(2.1216 0 0 2.01954 56.756 -41.737)" x1="24.239" y1="42.236" x2="24.239" y2="1.598"/></defs><path style="marker:none" opacity=".3" fill="url(#l)" overflow="visible" d="M14.614 38.968h66.77v7.564h-66.77z" transform="translate(0 48)"/><path d="M14.614 38.969v7.563c-2.437.014-5.891-1.695-5.891-3.782 0-2.088 2.72-3.781 5.891-3.781z" style="marker:none" opacity=".3" fill="url(#m)" overflow="visible" transform="translate(0 48)"/><path d="M81.385 38.969v7.563c2.437.014 5.891-1.695 5.891-3.782 0-2.088-2.72-3.781-5.891-3.781z" style="marker:none" opacity=".3" fill="url(#n)" overflow="visible" transform="translate(0 48)"/><path style="marker:none" d="M12.5-46.5l71 .004V42.5h-71v-89.001z" color="#000" fill="url(#o)" stroke="url(#p)" stroke-linejoin="round" overflow="visible" transform="translate(0 48)"/><path style="marker:none" d="M37.527-18.3C29.35-8.064 21.177 2.184 13 12.42V43.7h58.267c5.374-6.727 6.202-7.752 11.733-14.676V.667C66.95-6.03 47.949-13.951 37.527-18.3z" opacity=".1" fill="url(#q)" overflow="visible" transform="translate(0 48)"/><path style="marker:none" d="M37.527-20C29.35-9.764 21.177.484 13 10.72V42h58.267c5.374-6.727 6.202-7.752 11.733-14.676V-1.033C66.95-7.73 47.949-15.651 37.527-20z" opacity=".4" fill="url(#r)" overflow="visible" transform="translate(0 48)"/><path d="M82.5 41.5h-69v-87h69z" opacity=".5" fill="none" stroke="url(#s)" stroke-linecap="round" stroke-linejoin="round" transform="translate(0 48)"/><path d="M13-46V5.661c.004.382.094.744.248.997s.357.374.562.335l68.57-20.239c.354-.104.615-.666.62-1.331V-46z" opacity=".2" fill="url(#t)" fill-rule="evenodd" transform="translate(0 48)"/><path style="-inkscape-font-specification:Droid Sans Bold" d="M42.8 48.71c3.072.021 6.634.13 8.874-2.22 1.715-2.11 1.734-5.157.799-7.577-1.212-2.763-4.694-3.34-7.504-3.262h-2.17v13.06zm20.198-6.98c.064 4.41-1.71 9.09-5.707 11.598-4.13 2.758-9.323 3.138-14.212 3.025-.61.063-.125 1.167-.28 1.663V72H33V28.008c5.08.037 10.165-.081 15.243.077 4.866.286 10.192 1.901 12.83 6.093 1.42 2.262 1.926 4.946 1.925 7.551z" font-size="31.585" font-weight="700" opacity=".4" fill="#fff" font-family="Droid Sans"/><path style="-inkscape-font-specification:Droid Sans Bold" d="M42.8-.29c3.072.021 6.634.13 8.874-2.22 1.715-2.11 1.734-5.157.799-7.577-1.212-2.763-4.694-3.34-7.504-3.262h-2.17v13.06zm20.198-6.98c.064 4.41-1.71 9.09-5.707 11.598-4.13 2.758-9.323 3.138-14.212 3.025-.61.063-.125 1.167-.28 1.663V23H33v-43.992c5.08.037 10.165-.081 15.243.077 4.866.286 10.192 1.901 12.83 6.093 1.42 2.262 1.926 4.946 1.925 7.551z" font-size="31.585" font-weight="700" fill="url(#u)" font-family="Droid Sans" transform="translate(0 48)"/><path style="marker:none" d="M53.4 10.903c-4.35 5.265-2.623 11.878 3.858 14.76 6.48 2.883 15.27.95 19.622-4.316 4.35-5.265 2.623-11.878-3.858-14.76-6.48-2.883-15.27-.95-19.622 4.316zm11.74 5.222l7.444-9.008c5.1 2.268 7.174 6.843 5.186 11.433l-12.63-2.425z" opacity=".3" fill="url(#v)" overflow="visible" transform="translate(0 48)"/></svg>