<svg xmlns="http://www.w3.org/2000/svg" xmlns:xlink="http://www.w3.org/1999/xlink" width="96" height="96"><defs><linearGradient xlink:href="#a" id="r" gradientUnits="userSpaceOnUse" gradientTransform="matrix(1.86486 0 0 2.35135 3.243 -58.432)" x1="24" y1="5.564" x2="24" y2="43"/><linearGradient id="a"><stop offset="0" stop-color="#fff"/><stop offset=".036" stop-color="#fff" stop-opacity=".235"/><stop offset=".951" stop-color="#fff" stop-opacity=".157"/><stop offset="1" stop-color="#fff" stop-opacity=".392"/></linearGradient><linearGradient id="b"><stop offset="0"/><stop offset="1" stop-opacity="0"/></linearGradient><linearGradient id="c"><stop offset="0" stop-opacity="0"/><stop offset=".5"/><stop offset="1" stop-opacity="0"/></linearGradient><linearGradient xlink:href="#d" id="v" gradientUnits="userSpaceOnUse" gradientTransform="matrix(2.09087 0 0 2.01993 6.883 -47)" x1="24.239" y1="44.11" x2="24.239" y2=".191"/><linearGradient id="d"><stop offset="0" stop-color="#355129"/><stop offset="1" stop-color="#7c8763"/></linearGradient><linearGradient xlink:href="#e" id="u" gradientUnits="userSpaceOnUse" gradientTransform="matrix(2.0606 0 0 2.04423 141.886 -56.165)" spreadMethod="reflect" x1="-43.305" y1="34.497" x2="-25.366" y2="20.127"/><linearGradient id="e"><stop offset="0"/><stop offset="1" stop-opacity="0"/></linearGradient><linearGradient xlink:href="#f" id="t" gradientUnits="userSpaceOnUse" gradientTransform="matrix(2.44416 0 0 1.8383 -132.081 -38.165)" spreadMethod="reflect" x1="76.542" y1="27.833" x2="90.862" y2="11.513"/><linearGradient id="f"><stop offset="0" stop-color="#fff"/><stop offset="1" stop-color="#fff" stop-opacity="0"/></linearGradient><linearGradient xlink:href="#g" id="s" gradientUnits="userSpaceOnUse" gradientTransform="matrix(2.44416 0 0 1.8383 -132.347 -36.243)" spreadMethod="reflect" x1="75.854" y1="28" x2="91" y2="12"/><linearGradient id="g"><stop offset="0"/><stop offset="1" stop-opacity="0"/></linearGradient><radialGradient r="18" fy="12.312" fx="13.78" cy="12.312" cx="13.78" gradientTransform="matrix(0 4.77778 -7.70405 0 114.85 -103.84)" gradientUnits="userSpaceOnUse" id="p" xlink:href="#h"/><linearGradient id="h"><stop offset="0" stop-color="#b5cc85"/><stop offset=".264" stop-color="#9abe74"/><stop offset=".709" stop-color="#669f4d"/><stop offset="1" stop-color="#47892b"/></linearGradient><linearGradient y2="3.058" x2="-51.798" y1="53.34" x1="-51.798" gradientTransform="matrix(1.63806 0 0 1.80977 119.848 -53.534)" gradientUnits="userSpaceOnUse" id="q" xlink:href="#i"/><linearGradient id="i"><stop offset="0" stop-color="#425a2d"/><stop offset="1" stop-color="#7f956d"/></linearGradient><linearGradient id="j"><stop offset="0" stop-color="#fff"/><stop offset="1" stop-color="#fff" stop-opacity="0"/></linearGradient><linearGradient y2="22.339" x2="12.991" y1="13.01" x1="9.563" gradientTransform="matrix(1.5238 0 0 2.84047 11.429 -62.954)" gradientUnits="userSpaceOnUse" id="w" xlink:href="#j"/><radialGradient xlink:href="#k" id="o" gradientUnits="userSpaceOnUse" gradientTransform="matrix(.04732 0 0 .03119 52.865 27.524)" cx="605.714" cy="486.648" fx="605.714" fy="486.648" r="117.143"/><linearGradient id="k"><stop offset="0"/><stop offset="1" stop-opacity="0"/></linearGradient><radialGradient xlink:href="#k" id="n" gradientUnits="userSpaceOnUse" gradientTransform="matrix(-.04732 0 0 .03119 43.134 27.524)" cx="605.714" cy="486.648" fx="605.714" fy="486.648" r="117.143"/><linearGradient id="l"><stop offset="0" stop-opacity="0"/><stop offset=".5"/><stop offset="1" stop-opacity="0"/></linearGradient><linearGradient y2="609.505" x2="302.857" y1="366.648" x1="302.857" gradientTransform="matrix(.13828 0 0 .03119 -1.98 27.524)" gradientUnits="userSpaceOnUse" id="m" xlink:href="#l"/></defs><path style="marker:none" opacity=".3" fill="url(#m)" overflow="visible" d="M14.614 38.958h66.77v7.574h-66.77z" transform="translate(0 48)"/><path d="M14.614 38.958v7.574c-2.437.014-5.891-1.697-5.891-3.787s2.72-3.787 5.891-3.787z" style="marker:none" opacity=".3" fill="url(#n)" overflow="visible" transform="translate(0 48)"/><path d="M81.385 38.958v7.574c2.437.014 5.891-1.697 5.891-3.787s-2.72-3.787-5.891-3.787z" style="marker:none" opacity=".3" fill="url(#o)" overflow="visible" transform="translate(0 48)"/><path style="marker:none" d="M12.5-46.5c16.27 0 71 .006 71 .006V42.5h-71v-89z" color="#000" fill="url(#p)" stroke="url(#q)" stroke-linejoin="round" overflow="visible" transform="translate(0 48)"/><path d="M82.5 41.5h-69v-87h69z" opacity=".5" fill="none" stroke="url(#r)" stroke-linecap="round" stroke-linejoin="round" transform="translate(0 48)"/><path style="marker:none" d="M37.527-18.3C29.35-8.064 21.177 2.184 13 12.42V43.7h58.267c5.374-6.727 6.202-7.752 11.733-14.676V.667C66.95-6.03 47.949-13.951 37.527-18.3z" opacity=".1" fill="url(#s)" overflow="visible" transform="translate(0 48)"/><path style="marker:none" d="M37.527-20C29.35-9.764 21.177.484 13 10.72V42h58.267c5.374-6.727 6.202-7.752 11.733-14.676V-1.033C66.95-7.73 47.949-15.651 37.527-20z" opacity=".4" fill="url(#t)" overflow="visible" transform="translate(0 48)"/><path style="marker:none" d="M39.371-11l-2.576 3.194L50.447-1.8l2.576-3.194L39.37-11zM34.22-4.676l-2.576 3.194 13.651 6.005 2.576-3.194L34.22-4.676zM56.95-3.27L54.376-.076l13.652 6.005 2.575-3.194L56.951-3.27zM29.069 1.713l-2.64 3.194 13.652 6.005 2.64-3.195-13.652-6.004zM51.8 3.054l-2.576 3.194 13.652 6.005 2.576-3.194-13.652-6.005zM74.53 4.46l-2.64 3.13L82 12.062V7.717L74.53 4.46zM23.852 8.101l-2.575 3.13 13.651 6.005 2.576-3.13L23.852 8.1zm22.796 1.341l-2.64 3.194 13.651 6.005 2.64-3.194-13.651-6.005zm22.666 1.342l-2.575 3.194 13.651 6.005 1.61-1.98v-1.661l-12.686-5.558zm-50.613 3.641l-2.576 3.194 13.652 6.005 2.575-3.194-13.651-6.005zm22.73 1.405l-2.575 3.13 13.652 6.006 2.575-3.13-13.651-6.006zm22.732 1.342l-2.576 3.13 13.652 6.005 2.575-3.13-13.651-6.005zM14 21.069v4.28l10.56 4.663 2.576-3.194L14 21.068zm22.28 1.086l-2.575 3.194 13.651 6.005 2.576-3.194-13.652-6.005zm22.667 1.341l-2.576 3.194 13.652 6.005 2.575-3.194-13.651-6.005zm-27.883 5.047l-2.575 3.194 13.651 6.005 2.576-3.194-13.652-6.005zM14 29.629v4.344l5.41 2.364 2.575-3.194L14 29.629zm39.795.256l-2.575 3.194 13.651 6.005 2.576-3.195-13.652-6.004zm-27.882 4.982l-2.576 3.194L30.034 41h9.402l.128-.128-13.651-6.005zm22.73 1.342l-2.64 3.194L49.61 41h9.917l-10.883-4.791zM14 38.253V41h1.61l1.223-1.47L14 38.254z" opacity=".1" fill="url(#u)" fill-rule="evenodd" overflow="visible" transform="translate(0 48)"/><path style="-inkscape-font-specification:Droid Sans Bold" d="M68 72H56.972l-9.315-16.643L38.343 72H28l13.832-22.692L28.966 28H39.62l8.536 15.83L56.505 28H66.91L53.888 49.82 68 72z" font-size="31.355" font-weight="700" opacity=".4" fill="#fff" font-family="Droid Sans"/><path style="-inkscape-font-specification:Droid Sans Bold" d="M68 23H56.972L47.657 6.357 38.343 23H28L41.832.308 28.966-21H39.62l8.536 15.83L56.505-21H66.91L53.888.82 68 23z" font-size="31.355" font-weight="700" fill="url(#v)" font-family="Droid Sans" transform="translate(0 48)"/><path d="M13-46V5.661c.004.382.094.744.248.997s.357.374.562.335L82.38-13.246c.353-.103.614-.666.619-1.331V-46z" opacity=".2" fill="url(#w)" fill-rule="evenodd" transform="translate(0 48)"/></svg>