<svg xmlns="http://www.w3.org/2000/svg" xmlns:xlink="http://www.w3.org/1999/xlink" width="16" height="16"><defs><linearGradient id="e"><stop offset="0" stop-color="#fff"/><stop offset=".295" stop-color="#fff"/><stop offset=".434" stop-color="#fff" stop-opacity=".69"/><stop offset="1" stop-color="#fff" stop-opacity="0"/></linearGradient><linearGradient id="c"><stop offset="0" stop-color="#dac197"/><stop offset=".284" stop-color="#c1a581"/><stop offset=".36" stop-color="#dbc298"/><stop offset="1" stop-color="#a68b60"/></linearGradient><linearGradient id="d"><stop offset="0" stop-color="#c9af8b"/><stop offset=".28" stop-color="#ad8757"/><stop offset=".357" stop-color="#c2a57f"/><stop offset="1" stop-color="#9d7d53"/></linearGradient><linearGradient id="a"><stop offset="0" stop-color="#fff" stop-opacity="0"/><stop offset=".245" stop-color="#fff"/><stop offset=".774" stop-color="#fff"/><stop offset="1" stop-color="#fff" stop-opacity="0"/></linearGradient><linearGradient id="b"><stop offset="0" stop-color="#fff" stop-opacity="0"/><stop offset="1" stop-color="#fff" stop-opacity="0"/></linearGradient><linearGradient x1="44.995" y1="17.5" x2="3.005" y2="17.5" id="j" xlink:href="#a" gradientUnits="userSpaceOnUse" gradientTransform="matrix(.36595 0 0 .36097 -.783 -.817)" spreadMethod="reflect"/><linearGradient x1="23.452" y1="30.555" x2="43.007" y2="45.934" id="h" xlink:href="#b" gradientUnits="userSpaceOnUse" gradientTransform="matrix(.46923 0 0 .42403 -3.004 -3.476)"/><linearGradient x1="24.823" y1="15.378" x2="24.997" y2="37.277" id="f" xlink:href="#c" gradientUnits="userSpaceOnUse" gradientTransform="matrix(.46923 0 0 .56213 -3.004 -7.08)"/><linearGradient x1="15.464" y1="7.976" x2="15.464" y2="45.042" id="g" xlink:href="#d" gradientUnits="userSpaceOnUse" gradientTransform="matrix(.36595 0 0 .36097 -.783 -1.561)"/><linearGradient x1="26" y1="22" x2="26" y2="8" id="i" xlink:href="#e" gradientUnits="userSpaceOnUse" gradientTransform="matrix(.5 0 0 .5 -4 -3)"/></defs><path d="M2.515 1.507h10.794c.63 0 .914-.104 1.095.36L15.503 5.5v8.523c0 .56.037.475-.593.475H1.09c-.63 0-.593.086-.593-.475V5.5l1.099-3.632c.176-.455.289-.361.919-.361z" style="marker:none" fill="url(#f)" stroke="url(#g)" stroke-width=".994" stroke-linecap="round" display="block" overflow="visible"/><path d="M2.858 1.873h10.12c.59 0 .956.2 1.203.753l.852 2.317v8.354c0 .528-.3.793-.89.793H1.798c-.59 0-.831-.292-.831-.82V4.944l.824-2.367c.165-.428.476-.703 1.067-.703z" style="marker:none" opacity=".505" fill="none" stroke="url(#h)" stroke-width=".742" display="block" overflow="visible"/><path d="M7 1h2v7H7V1z" style="marker:none" opacity=".4" fill="url(#i)" overflow="visible"/><path d="M.5 5.5h15" opacity=".4" fill="none" stroke="url(#j)" stroke-linecap="square"/></svg>