<svg xmlns="http://www.w3.org/2000/svg" xmlns:xlink="http://www.w3.org/1999/xlink" width="16" height="16"><defs><linearGradient y2="43" x2="24" y1="5" x1="24" gradientTransform="matrix(.2973 0 0 .2973 .865 .865)" gradientUnits="userSpaceOnUse" id="k" xlink:href="#a"/><linearGradient id="a"><stop offset="0" stop-color="#fff"/><stop offset=".063" stop-color="#fff" stop-opacity=".235"/><stop offset=".951" stop-color="#fff" stop-opacity=".157"/><stop offset="1" stop-color="#fff" stop-opacity=".392"/></linearGradient><linearGradient xlink:href="#b" id="j" gradientUnits="userSpaceOnUse" gradientTransform="matrix(.13339 0 0 .12898 -24.84 24.007)" x1="238.04" y1="-81.777" x2="238.04" y2="-164.299"/><linearGradient id="b"><stop offset="0" stop-color="#a5a6a8"/><stop offset="1" stop-color="#e8e8e8"/></linearGradient><linearGradient y2="-164.299" x2="238.04" y1="-81.777" x1="238.04" gradientTransform="matrix(.13339 0 0 .12898 -24.84 23.018)" gradientUnits="userSpaceOnUse" id="i" xlink:href="#c"/><linearGradient id="c"><stop offset="0" stop-color="#272727"/><stop offset="1" stop-color="#454545"/></linearGradient><linearGradient xlink:href="#d" id="h" gradientUnits="userSpaceOnUse" gradientTransform="matrix(.26052 0 0 .43374 1.735 -.478)" x1="16.626" y1="15.298" x2="20.055" y2="24.628"/><linearGradient id="d"><stop offset="0" stop-color="#fff"/><stop offset="1" stop-color="#fff" stop-opacity="0"/></linearGradient><linearGradient id="e"><stop offset="0" stop-color="#5f5f5f"/><stop offset=".262" stop-color="#4f4f4f"/><stop offset=".705" stop-color="#3b3b3b"/><stop offset="1" stop-color="#2b2b2b"/></linearGradient><radialGradient r="20" fy="8.45" fx="7.496" cy="8.45" cx="7.496" gradientTransform="matrix(0 .779 -.82409 0 14.963 -4.145)" gradientUnits="userSpaceOnUse" id="f" xlink:href="#e"/><linearGradient y2="3.899" x2="24" y1="44" x1="24" gradientTransform="matrix(.33333 0 0 .33333 0 0)" gradientUnits="userSpaceOnUse" id="g" xlink:href="#c"/></defs><path style="marker:none" color="#000" fill="url(#f)" stroke="url(#g)" stroke-linecap="round" stroke-linejoin="round" overflow="visible" d="M1.5 1.5h13v13h-13z"/><path d="M2.384 2C2.17 2 2 2.304 2 2.6l.004 7.4C2.349 9.992 13.738 7.051 14 6.91V2.6c0-.226-.168-.6-.353-.6H2.384z" opacity=".2" fill="url(#h)" fill-rule="evenodd"/><path d="M8.446 2c-.425-.023-.49.438-.446.744v6.014a1.951 1.951 0 0 0-.896.055c-.884.235-1.67 1.035-1.598 1.956.103.862 1.124 1.425 1.967 1.169.954-.226 1.507-1.055 1.507-2.125V5.05c.793.42 1.507 1.203 1.49 2.126.01.667-.178 1.334-.442 1.94-.036.074.042.146.099.174.153.043.233-.158.319-.252.921-1.235.98-3.05-.013-4.263-.353-.43-.813-.798-1.053-1.298a3.467 3.467 0 0 1-.468-1.26C8.815 2.06 8.63 2 8.446 2.002z" fill="url(#i)"/><path d="M8.446 2.99c-.425-.024-.49.437-.446.743v6.014a1.951 1.951 0 0 0-.896.056c-.884.235-1.67 1.034-1.598 1.955.103.863 1.124 1.425 1.967 1.17.954-.227 1.507-1.056 1.507-2.126V6.04c.793.419 1.507 1.202 1.49 2.125.01.667-.178 1.334-.442 1.941-.036.074.042.145.099.173.153.043.233-.158.319-.252.921-1.235.98-3.05-.013-4.263-.353-.43-.813-.797-1.053-1.298a3.467 3.467 0 0 1-.468-1.26c-.097-.158-.282-.218-.466-.217z" fill="url(#j)"/><path opacity=".5" fill="none" stroke="url(#k)" stroke-linecap="round" d="M2.5 2.5h11v11h-11z"/></svg>