<svg xmlns="http://www.w3.org/2000/svg" xmlns:xlink="http://www.w3.org/1999/xlink" width="16" height="16"><defs><linearGradient x1="24" y1="5.564" x2="24" y2="43" id="f" xlink:href="#a" gradientUnits="userSpaceOnUse" gradientTransform="matrix(.24324 0 0 .35135 2.162 -.432)"/><linearGradient id="a"><stop offset="0" stop-color="#fff"/><stop offset=".036" stop-color="#fff" stop-opacity=".235"/><stop offset=".951" stop-color="#fff" stop-opacity=".157"/><stop offset="1" stop-color="#fff" stop-opacity=".392"/></linearGradient><linearGradient id="b"><stop offset="0" stop-color="#f4f4f4"/><stop offset="1" stop-color="#dbdbdb"/></linearGradient><linearGradient id="c"><stop offset="0" stop-color="#a0a0a0"/><stop offset="1" stop-color="#bebebe"/></linearGradient><linearGradient x1="25.132" y1=".985" x2="25.132" y2="47.013" id="d" xlink:href="#b" gradientUnits="userSpaceOnUse" gradientTransform="matrix(.31429 0 0 .32593 .457 -.322)"/><linearGradient x1="-51.786" y1="50.786" x2="-51.786" y2="2.906" id="e" xlink:href="#c" gradientUnits="userSpaceOnUse" gradientTransform="matrix(.25379 0 0 .30502 19.129 -.685)"/></defs><path d="M2.5.5h11v15h-11V.5z" fill="url(#d)" stroke="url(#e)" stroke-linejoin="round"/><path d="M12.5 14.5h-9v-13h9z" fill="none" stroke="url(#f)" stroke-linecap="round"/><path d="M4.12 9.5l1.758-2.264-.587-.736L3 9.5l2.351 3L6 11.828 4.12 9.5z" opacity=".4" fill="#fff"/><path d="M8.5 7.5h1l-2 4h-1l2-4z" style="marker:none" opacity=".4" color="#000" fill="#fff" fill-rule="evenodd" overflow="visible"/><path d="M11.885 9.444l-1.763-2.208.587-.736L13 9.444 10.649 12.5 10 11.828l1.885-2.384z" opacity=".4" fill="#fff"/><path d="M4.12 8.5l1.758-2.264-.587-.736L3 8.5l2.351 3L6 10.828 4.12 8.5z" fill="#999"/><path d="M8.5 6.5h1l-2 4h-1l2-4z" style="marker:none" color="#000" fill="#666" fill-rule="evenodd" overflow="visible"/><path d="M11.885 8.444l-1.763-2.208.587-.736L13 8.444 10.649 11.5 10 10.828l1.885-2.384z" fill="#999"/></svg>