<svg xmlns="http://www.w3.org/2000/svg" xmlns:xlink="http://www.w3.org/1999/xlink" width="16" height="16"><defs><linearGradient x1="24" y1="6.205" x2="24" y2="41.59" id="j" xlink:href="#a" gradientUnits="userSpaceOnUse" gradientTransform="matrix(.24324 0 0 .35135 2.162 .568)"/><linearGradient id="a"><stop offset="0" stop-color="#fff"/><stop offset=".029" stop-color="#fff" stop-opacity=".235"/><stop offset=".972" stop-color="#fff" stop-opacity=".157"/><stop offset="1" stop-color="#fff" stop-opacity=".392"/></linearGradient><linearGradient id="b"><stop offset="0" stop-color="#f4f4f4"/><stop offset="1" stop-color="#dbdbdb"/></linearGradient><linearGradient x1="25.132" y1=".985" x2="25.132" y2="47.013" id="i" xlink:href="#b" gradientUnits="userSpaceOnUse" gradientTransform="matrix(.28571 0 0 .3042 1.143 1.233)"/><linearGradient id="c"><stop offset="0" stop-opacity=".34"/><stop offset="1" stop-opacity=".247"/></linearGradient><linearGradient x1="-51.786" y1="50.786" x2="-51.786" y2="2.906" id="k" xlink:href="#c" gradientUnits="userSpaceOnUse" gradientTransform="matrix(.25379 0 0 .30502 19.129 .315)"/><linearGradient id="d"><stop offset="0" stop-color="#5f5f5f"/><stop offset=".262" stop-color="#4f4f4f"/><stop offset=".705" stop-color="#3b3b3b"/><stop offset="1" stop-color="#2b2b2b"/></linearGradient><linearGradient id="e"><stop offset="0" stop-color="#272727"/><stop offset="1" stop-color="#454545"/></linearGradient><linearGradient x1="16.626" y1="15.298" x2="20.055" y2="24.628" id="o" xlink:href="#f" gradientUnits="userSpaceOnUse" gradientTransform="matrix(.39078 0 0 .48796 6.845 -4.974)"/><linearGradient id="f"><stop offset="0" stop-color="#fff"/><stop offset="1" stop-color="#fff" stop-opacity="0"/></linearGradient><linearGradient x1="149.985" y1="-104.235" x2="149.985" y2="-174.968" id="n" xlink:href="#e" gradientUnits="userSpaceOnUse" gradientTransform="matrix(.18366 0 0 .19793 -8.688 28.726)"/><linearGradient x1="45.414" y1="15.27" x2="45.567" y2="96.253" id="l" xlink:href="#g" gradientUnits="userSpaceOnUse" gradientTransform="matrix(.21396 0 0 .17749 -30.766 -15.528)"/><linearGradient id="g"><stop offset="0" stop-color="#262626"/><stop offset="1" stop-color="#4d4d4d"/></linearGradient><linearGradient x1="-24.032" y1="-13.091" x2="-24.098" y2="-40.164" id="m" xlink:href="#h" gradientUnits="userSpaceOnUse" gradientTransform="matrix(.48571 0 0 .51852 -4.565 8.669)"/><linearGradient id="h"><stop offset="0" stop-color="#1d1d1d"/><stop offset="1"/></linearGradient></defs><path d="M1 14V2h14v12z" fill="url(#i)"/><path d="M14.5 2.5v11h-13v-11z" fill="none" stroke="url(#j)" stroke-linecap="round"/><path d="M.5 14.5v-13h15v13z" fill="none" stroke="url(#k)" stroke-linejoin="round"/><g transform="matrix(.64683 0 0 .64278 -2.524 4.648)"><rect transform="matrix(-1 .00402 .00228 -1 0 0)" y="-12.344" x="-24.739" ry="0" rx="0" height="13.932" width="16.968" fill="url(#l)" stroke="url(#m)" stroke-width="1.551" stroke-linecap="round"/><path style="marker:none" d="M15.234.54c-.481 0-.872.836-.872 1.867 0 .171.007.338.027.496-.103-.112-.201-.232-.326-.336-.764-.628-1.628-.802-1.921-.393-.294.408.095 1.252.858 1.88.145.12.289.207.436.293a3.208 3.208 0 0 0-.518.116c-.924.289-1.565.934-1.43 1.43.135.494.996.653 1.92.364.174-.054.34-.114.491-.19-.037.072-.076.142-.109.22-1.816 1.735-3.31 5.06-3.31 5.06l.627.014c.34-.874 1.181-2.795 2.479-4.404-.184.818-.065 1.54.327 1.692.453.174 1.09-.474 1.416-1.444.03-.087.046-.177.068-.263.036.084.067.165.11.248.462.905 1.184 1.444 1.607 1.196.422-.247.38-1.181-.082-2.085-.026-.052-.054-.097-.082-.146.052.017.097.029.15.044.932.26 1.786.075 1.907-.423.122-.5-.54-1.11-1.47-1.371-.015-.004-.028-.011-.042-.015.013-.007.029-.007.041-.014.834-.516 1.317-1.304 1.076-1.75-.24-.447-1.114-.385-1.948.13a3.122 3.122 0 0 0-.667.555 3.65 3.65 0 0 0 .109-.904c0-1.031-.39-1.867-.872-1.867zm.027 3.121c.602 0 1.09.522 1.09 1.167 0 .644-.488 1.166-1.09 1.166-.602 0-1.09-.522-1.09-1.166 0-.645.488-1.167 1.09-1.167z" color="#000" overflow="visible" fill="url(#n)"/><path d="M15.234.992c-.481 0-.872.836-.872 1.867 0 .172.007.338.027.496-.103-.112-.201-.232-.326-.336-.764-.628-1.628-.802-1.921-.393-.294.408.095 1.252.858 1.88.145.12.289.207.436.293a3.208 3.208 0 0 0-.518.116c-.924.289-1.565.935-1.43 1.43.135.494.996.653 1.92.364.174-.054.34-.114.491-.19-.037.072-.076.142-.109.22-1.816 1.735-3.31 5.06-3.31 5.06l.627.014c.34-.874 1.181-2.795 2.479-4.404-.184.818-.065 1.54.327 1.692.453.175 1.09-.474 1.416-1.444.03-.087.046-.177.068-.263.036.084.067.165.11.248.462.905 1.184 1.444 1.607 1.196.422-.247.38-1.181-.082-2.085-.026-.052-.054-.097-.082-.146.052.017.097.029.15.044.932.26 1.786.076 1.907-.423.122-.499-.54-1.11-1.47-1.371-.015-.004-.028-.01-.042-.015.013-.007.029-.007.041-.014.834-.516 1.317-1.304 1.076-1.75-.24-.447-1.114-.384-1.948.131a3.122 3.122 0 0 0-.667.554 3.65 3.65 0 0 0 .109-.904c0-1.03-.39-1.867-.872-1.867zm.027 3.121c.602 0 1.09.523 1.09 1.167s-.488 1.167-1.09 1.167c-.602 0-1.09-.523-1.09-1.167s.488-1.167 1.09-1.167z" fill="#d2d2d2"/><path d="M7.242-2.187l.006 9c.518-.009 17.601-3.317 17.994-3.477v-5.523z" opacity=".15" fill="url(#o)" fill-rule="evenodd"/></g></svg>