<svg xmlns="http://www.w3.org/2000/svg" xmlns:xlink="http://www.w3.org/1999/xlink" width="16" height="16"><defs><linearGradient id="b"><stop offset="0" stop-color="#4d4d4d"/><stop offset=".262" stop-color="#404040"/><stop offset=".705" stop-color="#303030"/><stop offset="1" stop-color="#232323"/></linearGradient><linearGradient id="c"><stop offset="0" stop-color="#202020"/><stop offset="1" stop-color="#383838"/></linearGradient><linearGradient xlink:href="#a" id="h" gradientUnits="userSpaceOnUse" gradientTransform="matrix(.31687 0 0 .3405 478.27 468.578)" x1="24" y1="5" x2="24" y2="43"/><linearGradient id="a"><stop offset="0" stop-color="#fff"/><stop offset=".031" stop-color="#fff" stop-opacity=".235"/><stop offset=".971" stop-color="#fff" stop-opacity=".157"/><stop offset="1" stop-color="#fff" stop-opacity=".392"/></linearGradient><radialGradient r="20" fy="8.45" fx="7.496" cy="8.45" cx="7.496" gradientTransform="matrix(0 .80896 -.79239 0 492.57 464.138)" gradientUnits="userSpaceOnUse" id="f" xlink:href="#b"/><linearGradient y2="3.899" x2="24" y1="44" x1="24" gradientTransform="matrix(.32051 0 0 .34615 478.183 468.442)" gradientUnits="userSpaceOnUse" id="g" xlink:href="#c"/><linearGradient id="d"><stop offset="0" stop-color="#fff"/><stop offset="1" stop-color="#fff" stop-opacity="0"/></linearGradient><linearGradient y2="24.628" x2="20.055" y1="15.298" x1="16.626" gradientTransform="matrix(.23881 0 0 .43374 480.12 468.285)" gradientUnits="userSpaceOnUse" id="i" xlink:href="#d"/><linearGradient id="e"><stop offset="0" stop-color="#272727"/><stop offset="1" stop-color="#454545"/></linearGradient><linearGradient y2="-174.968" x2="149.985" y1="-104.235" x1="149.985" gradientTransform="matrix(.316 0 0 .31973 442.719 515.89)" gradientUnits="userSpaceOnUse" id="j" xlink:href="#e"/></defs><path style="marker:none" d="M479.916 470c-.161 0-.291.154-.291.346v12.808c0 .192.13.346.29.346h11.92c.16 0 .29-.154.29-.346v-12.808c0-.192-.13-.346-.29-.346z" color="#000" fill="url(#f)" stroke="url(#g)" stroke-width=".5" stroke-linecap="round" stroke-linejoin="round" overflow="visible" transform="translate(-478.375 -468.75)"/><path opacity=".5" fill="none" stroke="url(#h)" stroke-width=".5" stroke-linecap="round" stroke-linejoin="round" d="M480.013 470.451h11.724v12.599h-11.724z" transform="translate(-478.375 -468.75)"/><path d="M480.363 470.763l.004 8c.317-.008 10.756-2.95 10.996-3.09v-4.91s-7.343.008-11 0z" opacity=".2" fill="url(#i)" fill-rule="evenodd" transform="translate(-478.375 -468.75)"/><path fill="#fff" stroke="#fff" stroke-width=".5" stroke-linejoin="round" d="M2.238 2.263h.5v.5h-.5zM4.238 2.263h.5v.5h-.5zM6.238 2.263h.5v.5h-.5zM8.238 2.263h.5v.5h-.5zM10.238 2.263h.5v.5h-.5zM12.238 2.263h.5v.5h-.5zM2.238 13.263h.5v.5h-.5zM4.238 13.263h.5v.5h-.5zM6.238 13.263h.5v.5h-.5zM8.238 13.263h.5v.5h-.5zM10.238 13.263h.5v.5h-.5zM12.238 13.263h.5v.5h-.5z"/><path style="marker:none" d="M483.363 472.763v6.03l6-3.015z" color="#000" fill="url(#j)" overflow="visible" transform="translate(-478.375 -468.75)"/><path d="M4.988 4.982v6.03l6-3.015z" style="marker:none" color="#000" fill="#d2d2d2" overflow="visible"/></svg>