<svg xmlns="http://www.w3.org/2000/svg" xmlns:xlink="http://www.w3.org/1999/xlink" width="16" height="16"><defs><linearGradient xlink:href="#a" id="n" gradientUnits="userSpaceOnUse" gradientTransform="matrix(.24324 0 0 .35135 2.162 -.432)" x1="24" y1="5.564" x2="24" y2="43"/><linearGradient id="a"><stop offset="0" stop-color="#fff"/><stop offset=".036" stop-color="#fff" stop-opacity=".235"/><stop offset=".951" stop-color="#fff" stop-opacity=".157"/><stop offset="1" stop-color="#fff" stop-opacity=".392"/></linearGradient><linearGradient xlink:href="#b" id="p" gradientUnits="userSpaceOnUse" gradientTransform="matrix(.35362 0 0 .36691 -.571 -.715)" x1="24.239" y1="44.11" x2="24.239" y2=".191"/><linearGradient id="b"><stop offset="0" stop-color="#294351"/><stop offset="1" stop-color="#637a87"/></linearGradient><linearGradient xlink:href="#c" id="m" gradientUnits="userSpaceOnUse" gradientTransform="matrix(.32379 0 0 .32192 .237 .882)" spreadMethod="reflect" x1="26.189" y1="30.455" x2="44.25" y2="16.135"/><linearGradient id="c"><stop offset="0"/><stop offset="1" stop-opacity="0"/></linearGradient><linearGradient xlink:href="#d" id="l" gradientUnits="userSpaceOnUse" gradientTransform="matrix(.38408 0 0 .2965 -20.298 2.07)" spreadMethod="reflect" x1="75.854" y1="28" x2="91" y2="12"/><linearGradient id="d"><stop offset="0" stop-color="#fff"/><stop offset="1" stop-color="#fff" stop-opacity="0"/></linearGradient><linearGradient xlink:href="#e" id="k" gradientUnits="userSpaceOnUse" gradientTransform="matrix(.38439 0 0 .2959 -20.354 2.501)" spreadMethod="reflect" x1="75.854" y1="28" x2="91" y2="12"/><linearGradient id="e"><stop offset="0"/><stop offset="1" stop-opacity="0"/></linearGradient><radialGradient r="18" fy="11.49" fx="14.239" cy="11.49" cx="14.239" gradientTransform="scale(1.81669 1.0835) rotate(90 13 .877)" gradientUnits="userSpaceOnUse" id="i" xlink:href="#f"/><linearGradient id="f"><stop offset="0" stop-color="#85c2cf"/><stop offset=".262" stop-color="#74a4be"/><stop offset=".705" stop-color="#5177a0"/><stop offset="1" stop-color="#2c5889"/></linearGradient><linearGradient y2="2.906" x2="-51.786" y1="53.624" x1="-51.786" gradientTransform="matrix(.27686 0 0 .30502 20.141 -.686)" gradientUnits="userSpaceOnUse" id="j" xlink:href="#g"/><linearGradient id="g"><stop offset="0" stop-color="#2e4a5a"/><stop offset="1" stop-color="#6e8796"/></linearGradient><linearGradient id="h"><stop offset="0" stop-color="#fff"/><stop offset="1" stop-color="#fff" stop-opacity="0"/></linearGradient><linearGradient y2="24.628" x2="20.055" y1="15.298" x1="16.626" gradientTransform="matrix(.21769 0 0 .42875 2.776 -1.56)" gradientUnits="userSpaceOnUse" id="o" xlink:href="#h"/></defs><path style="marker:none" d="M2.5.5h11v15h-11V.5z" fill="url(#i)" stroke="url(#j)" stroke-linejoin="round" color="#000" overflow="visible"/><path style="marker:none" d="M6.361 5.39l-3.857 4.944v5.035h9.164l1.845-2.362V8.442L6.36 5.39z" opacity=".1" fill="url(#k)" overflow="visible"/><path style="marker:none" d="M6.354 5C5.07 6.65 3.784 8.304 2.5 9.955V15h9.156l1.844-2.367V8.059L6.354 5z" opacity=".4" fill="url(#l)" overflow="visible"/><path d="M6.481 6.762l6.029 2.666L6.48 6.762zm-.643.852l7.01 3.1-7.01-3.1zm-.652.866l2.243.992-2.243-.992zm-.643.852l7.01 3.1-7.01-3.1zm-.652.866l6.309 2.79-6.31-2.79zm-.648.86l5.748 2.541-5.748-2.542zm-.642.852l6.87 3.038L2.6 11.91z" opacity=".1" fill="none" stroke="url(#m)"/><path d="M12.5 14.5h-9v-13h9z" fill="none" stroke="url(#n)" stroke-linecap="round" opacity=".5"/><path d="M3 1v7.798c0 .058.013.112.035.15.022.039.051.057.08.05l9.797-3.054c.05-.016.087-.1.088-.2V1z" opacity=".2" fill="url(#o)" fill-rule="evenodd"/><path style="-inkscape-font-specification:Droid Sans Bold" d="M11.145 13H9.291c-.34-1.443-.707-2.88-1.03-4.328-.103-.456-.212-1.236-.273-1.517-.197 1.562-.626 3.074-.977 4.603L6.714 13h-1.86L3 5.008h1.607c.43 2.195.915 4.38 1.254 6.593a26.93 26.93 0 0 1 .59-3.105l.832-3.488h1.434c.364 1.542.743 3.08 1.099 4.624.126.653.227 1.311.328 1.969.32-2.177.807-4.32 1.226-6.478-.009-.21.248-.08.376-.115H13L11.145 13z" font-size="30.514" font-weight="700" opacity=".4" fill="#fff" font-family="Droid Sans"/><path style="-inkscape-font-specification:Droid Sans Bold" d="M11.145 12H9.291c-.34-1.443-.707-2.88-1.03-4.328-.103-.456-.212-1.236-.273-1.517-.197 1.562-.626 3.074-.977 4.603L6.714 12h-1.86L3 4.008h1.607c.43 2.195.915 4.38 1.254 6.593a26.93 26.93 0 0 1 .59-3.105l.832-3.488h1.434c.364 1.542.743 3.08 1.099 4.624.126.653.227 1.311.328 1.969.32-2.177.807-4.32 1.226-6.478-.009-.21.248-.08.376-.115H13L11.145 12z" font-size="30.514" font-weight="700" fill="url(#p)" font-family="Droid Sans"/></svg>