<svg xmlns="http://www.w3.org/2000/svg" xmlns:xlink="http://www.w3.org/1999/xlink" width="16" height="16"><defs><linearGradient xlink:href="#a" id="f" gradientUnits="userSpaceOnUse" gradientTransform="matrix(.24324 0 0 .35135 2.162 -.432)" x1="24" y1="5.564" x2="24" y2="43"/><linearGradient id="a"><stop offset="0" stop-color="#fff"/><stop offset=".036" stop-color="#fff" stop-opacity=".235"/><stop offset=".951" stop-color="#fff" stop-opacity=".157"/><stop offset="1" stop-color="#fff" stop-opacity=".392"/></linearGradient><linearGradient y2="47.013" x2="25.132" y1=".985" x1="25.132" gradientTransform="matrix(.31429 0 0 .32593 .457 -.322)" gradientUnits="userSpaceOnUse" id="d" xlink:href="#b"/><linearGradient y2="2.906" x2="-51.786" y1="50.786" x1="-51.786" gradientTransform="matrix(.25379 0 0 .30502 19.129 -.685)" gradientUnits="userSpaceOnUse" id="e" xlink:href="#c"/><linearGradient id="b"><stop offset="0" stop-color="#fff3cb"/><stop offset=".262" stop-color="#fdde76"/><stop offset=".661" stop-color="#f9c440"/><stop offset="1" stop-color="#e48b20"/></linearGradient><linearGradient id="c"><stop offset="0" stop-color="#b67926"/><stop offset="1" stop-color="#eab41a"/></linearGradient></defs><path d="M2.5.5h11v15h-11V.5z" fill="url(#d)" stroke="url(#e)" stroke-linejoin="round"/><path d="M12.5 14.5h-9v-13h9z" fill="none" stroke="url(#f)" stroke-linecap="round" opacity=".5"/><path d="M3.5 1.5h5.995L12.5 4.771V14.5h-9z" opacity=".2" fill="#fff" stroke="#000"/><path d="M4 2h5.318L12 5v9H4z" fill="#fff"/><path d="M5.5 11.5l1.2-5 2.8 5z" fill="#f3ba00" fill-opacity=".427" stroke="#f3ba00"/><path d="M5.5 4.5h2v2h-2zM4.5 10.5h2v2h-2zM9.5 10.5h2v2h-2z" fill="#fff" stroke="#f3ba00"/></svg>