<svg xmlns="http://www.w3.org/2000/svg" xmlns:xlink="http://www.w3.org/1999/xlink" width="16" height="16"><defs><linearGradient xlink:href="#a" id="f" gradientUnits="userSpaceOnUse" gradientTransform="matrix(.35135 0 0 .24324 -.432 2.162)" x1="24" y1="3.156" x2="24" y2="43"/><linearGradient id="a"><stop offset="0" stop-color="#fff"/><stop offset=".125" stop-color="#fff" stop-opacity=".235"/><stop offset=".951" stop-color="#fff" stop-opacity=".157"/><stop offset="1" stop-color="#fff" stop-opacity=".392"/></linearGradient><linearGradient y2="47.013" x2="25.132" y1=".985" x1="25.132" gradientTransform="matrix(.42857 0 0 .23901 -2.286 1.897)" gradientUnits="userSpaceOnUse" id="d" xlink:href="#b"/><linearGradient y2="2.906" x2="-51.786" y1="50.786" x1="-51.786" gradientTransform="matrix(.34607 0 0 .22368 23.176 1.63)" gradientUnits="userSpaceOnUse" id="e" xlink:href="#c"/><linearGradient id="b"><stop offset="0" stop-color="#f9c590"/><stop offset=".397" stop-color="#f19860"/><stop offset="1" stop-color="#ce5d36"/></linearGradient><linearGradient id="c"><stop offset="0" stop-color="#71171c"/><stop offset="1" stop-color="#ed8137"/></linearGradient></defs><path d="M.5 2.5h15v11H.5v-11z" fill="url(#d)" stroke="url(#e)" stroke-linejoin="round"/><path d="M14.5 12.5h-13v-9h13z" fill="none" stroke="url(#f)" stroke-linecap="round" opacity=".5"/><path d="M1.5 3.5H12L14.5 6v6.5h-13z" opacity=".2" fill="none" stroke="#000" stroke-opacity=".564"/><path d="M2.5 4.5h9l2 2v5h-11z" fill="#fff" stroke="#fff"/><path d="M3 6h4v1H3z" fill="#d37241"/><path style="marker:none" d="M13 8.5a2.5 2.5 0 1 1-1.322-2.205L10.5 8.5z" color="#000" fill="#d37241" overflow="visible"/><path d="M3 8h3v1H3zM3 10h4v1H3z" fill="#d37241"/></svg>