<svg xmlns="http://www.w3.org/2000/svg" xmlns:xlink="http://www.w3.org/1999/xlink" width="16" height="16"><defs><linearGradient x1="24" y1="6.923" x2="24" y2="41.077" id="f" xlink:href="#a" gradientUnits="userSpaceOnUse" gradientTransform="matrix(.24324 0 0 .35135 2.162 -.432)"/><linearGradient id="a"><stop offset="0" stop-color="#fff"/><stop offset="0" stop-color="#fff" stop-opacity=".235"/><stop offset="1" stop-color="#fff" stop-opacity=".157"/><stop offset="1" stop-color="#fff" stop-opacity=".392"/></linearGradient><linearGradient id="b"><stop offset="0" stop-color="#f4f4f4"/><stop offset="1" stop-color="#dbdbdb"/></linearGradient><linearGradient x1="25.132" y1=".985" x2="25.132" y2="47.013" id="e" xlink:href="#b" gradientUnits="userSpaceOnUse" gradientTransform="matrix(.28571 0 0 .3042 1.143 .233)"/><linearGradient id="c"><stop offset="0" stop-opacity=".34"/><stop offset="1" stop-opacity=".247"/></linearGradient><linearGradient x1="-51.786" y1="50.786" x2="-51.786" y2="2.906" id="g" xlink:href="#c" gradientUnits="userSpaceOnUse" gradientTransform="matrix(.25379 0 0 .30502 19.129 -.685)"/><radialGradient r="12.672" fy="9.994" fx="8.276" cy="9.994" cx="8.276" gradientTransform="matrix(0 2.56452 -2.89833 0 36.992 -24.486)" gradientUnits="userSpaceOnUse" id="h" xlink:href="#d"/><linearGradient id="d"><stop offset="0" stop-color="#f89b7e"/><stop offset=".262" stop-color="#e35d4f"/><stop offset=".661" stop-color="#c6262e"/><stop offset="1" stop-color="#690b2c"/></linearGradient><linearGradient y2="41.815" x2="24" y1="6.185" x1="24" gradientTransform="matrix(.24324 0 0 .35135 2.161 -.432)" gradientUnits="userSpaceOnUse" id="i" xlink:href="#a"/></defs><path d="M3 1h10v14H3V1z" fill="url(#e)"/><path d="M12.5 14.5h-9v-13h9z" fill="none" stroke="url(#f)" stroke-linecap="round"/><path d="M2.5.5h11v15h-11V.5z" fill="none" stroke="url(#g)" stroke-linejoin="round"/><path style="isolation:auto;mix-blend-mode:normal;marker:none" d="M9.277 1C6.354 3.785 4.285 4.942 3 5.42V6.9c.714-.234 1.6-.62 2.52-1.26 2.12-1.474 4.647-4.27 4.647-4.27C9.472 2.884 9.27 8.1 9.257 15H13V9.682a70.383 70.383 0 0 1-.442-2.421c-.344-2.905.165-5.443.354-6.261H9.277zM3 8.686v1.426c1.631.748 3.524 2.675 4.558 4.888h1.115C8.183 12.971 5.005 9.911 3 8.686z" color="#000" overflow="visible" fill="url(#h)"/><path style="marker:none;isolation:auto;mix-blend-mode:normal;filter-blend-mode:normal;filter-gaussianBlur-deviation:0" d="M12.313 1.031C10.933 2.174 6.409 5.628 3 5.188v3.156s7.073 1.459 10-1.188V1.094a.422.422 0 0 0-.25-.063h-.438zm.656 7.563c-1.306 1.793-2.609 4.06-3.5 6.406h1.125c.69-1.542 1.561-3.227 2.375-4.406v-2z" color="#000" overflow="visible" opacity=".1" fill="#8c0000" fill-rule="evenodd"/><path d="M3.5 5.52v1.402M9.155 14.5H12.5V9.052M12.494 1.5H9.055M3.5 8.715v1.332M7.538 14.5h1.05" opacity=".3" fill="none" stroke="url(#i)" stroke-linecap="round"/><path style="marker:none" d="M2.5 5.316V6.82m6.831 8.68H13.5V9.722M13.155.501L9.338.5M2.5 8.75v1.434m5.056 5.306l1.15.01" color="#000" overflow="visible" opacity=".2" fill="none" stroke="#410000" stroke-linejoin="round"/></svg>