<svg xmlns="http://www.w3.org/2000/svg" xmlns:xlink="http://www.w3.org/1999/xlink" version="1" width="16" height="16"><defs><linearGradient id="a"><stop offset="0" stop-color="#71171c"/><stop offset="1" stop-color="#ed8137"/></linearGradient><linearGradient id="b"><stop offset="0" stop-color="#f9c590"/><stop offset=".397" stop-color="#f19860"/><stop offset="1" stop-color="#ce5d36"/></linearGradient><linearGradient id="c"><stop offset="0"/><stop offset="1" stop-opacity="0"/></linearGradient><linearGradient id="d"><stop offset="0" stop-color="#fff"/><stop offset="1" stop-color="#fff" stop-opacity="0"/></linearGradient><linearGradient id="f"><stop offset="0" stop-color="#fff"/><stop offset="1" stop-color="#fff" stop-opacity="0"/></linearGradient><linearGradient id="g"><stop offset="0" stop-color="#fefefe"/><stop offset="1" stop-color="#cbcbcb"/></linearGradient><linearGradient id="h"><stop offset="0" stop-color="#fff"/><stop offset="1" stop-color="#fff" stop-opacity="0"/></linearGradient><linearGradient id="i"><stop offset="0" stop-color="#c4c4c4"/><stop offset="1" stop-color="#c4c4c4" stop-opacity="0"/></linearGradient><linearGradient id="e"><stop offset="0" stop-color="#71171c"/><stop offset="1" stop-color="#ec7422"/></linearGradient><linearGradient xlink:href="#e" id="q" gradientUnits="userSpaceOnUse" gradientTransform="matrix(.3536 0 0 .36719 1.46 -.725)" x1="24.239" y1="42.236" x2="24.239" y2="1.598"/><linearGradient xlink:href="#h" id="p" gradientUnits="userSpaceOnUse" gradientTransform="matrix(.21769 0 0 .48234 2.776 -1.879)" x1="16.626" y1="15.298" x2="20.055" y2="24.628"/><linearGradient xlink:href="#f" id="o" gradientUnits="userSpaceOnUse" gradientTransform="matrix(.27273 0 0 .30233 1.455 .744)" x1="24" y1="2" x2="24" y2="46.017"/><linearGradient xlink:href="#e" id="n" gradientUnits="userSpaceOnUse" gradientTransform="matrix(.13422 0 0 .10361 .475 8.095)" spreadMethod="reflect" x1="53.4" y1="70.079" x2="106.992" y2="-18.244"/><linearGradient xlink:href="#d" id="m" gradientUnits="userSpaceOnUse" gradientTransform="matrix(.34917 0 0 .2965 -17.726 2.07)" spreadMethod="reflect" x1="75.854" y1="28" x2="91" y2="12"/><linearGradient xlink:href="#c" id="l" gradientUnits="userSpaceOnUse" gradientTransform="matrix(.38408 0 0 .2965 -20.84 3.106)" spreadMethod="reflect" x1="75.854" y1="28" x2="91" y2="12"/><radialGradient xlink:href="#b" id="j" gradientUnits="userSpaceOnUse" gradientTransform="matrix(0 1.0835 -1.81669 0 24.709 -13.135)" cx="14.239" cy="11.49" fx="14.239" fy="11.49" r="18"/><linearGradient xlink:href="#a" id="k" gradientUnits="userSpaceOnUse" gradientTransform="matrix(.27686 0 0 .30502 19.641 -.686)" x1="-51.786" y1="53.624" x2="-51.786" y2="2.906"/></defs><path style="marker:none" d="M2.5.5h11v15h-11V.5z" fill="url(#j)" stroke="url(#k)" stroke-linejoin="round" overflow="visible"/><path style="marker:none" d="M5.854 6C4.57 7.65 3.284 9.304 2 10.955V16h9.156L13 13.633V9.059L5.854 6z" opacity=".1" fill="url(#l)" overflow="visible"/><path style="marker:none" d="M6.504 5L3 9.955V15h8.324L13 12.633V8.059L6.504 5z" opacity=".4" fill="url(#m)" overflow="visible"/><path style="marker:none" d="M8.449 10.033c-.715.864-.431 1.949.634 2.422 1.065.473 2.51.156 3.225-.708.715-.864.431-1.949-.634-2.422-1.065-.473-2.51-.155-3.225.708zm1.93.857l1.223-1.478c.838.372 1.179 1.123.852 1.876l-2.076-.398z" opacity=".3" fill="url(#n)" overflow="visible"/><path d="M12.5 2v12.5h-9v-13H13" opacity=".4" fill="none" stroke="url(#o)"/><path d="M3 1v8.773c0 .065.013.126.035.169.022.043.051.063.08.057l9.797-3.437c.05-.018.087-.113.088-.226V1z" opacity=".2" fill="url(#p)" fill-rule="evenodd"/><path style="-inkscape-font-specification:Droid Sans Bold" d="M7.633 8.766c.512.003 1.106.023 1.48-.404.285-.384.288-.938.132-1.378-.202-.502-.782-.607-1.25-.593h-.362v2.375zM11 7.496c.01.802-.285 1.653-.951 2.109-.689.502-1.554.57-2.37.55-.1.012-.02.212-.046.302V13H6V5.002c.847.006 1.694-.015 2.54.013.812.053 1.7.346 2.139 1.108.237.411.32.9.32 1.373z" font-size="31.585" font-weight="700" opacity=".4" fill="#fff" font-family="Droid Sans"/><path style="-inkscape-font-specification:Droid Sans Bold" d="M7.633 7.766c.512.003 1.106.023 1.48-.404.285-.384.288-.938.132-1.378-.202-.502-.782-.607-1.25-.593h-.362v2.375zM11 6.496c.01.802-.285 1.653-.951 2.109-.689.502-1.554.57-2.37.55-.1.012-.02.212-.046.302V12H6V4.002c.847.006 1.694-.015 2.54.013.812.053 1.7.346 2.139 1.108.237.411.32.9.32 1.373z" font-size="31.585" font-weight="700" fill="url(#q)" font-family="Droid Sans"/></svg>