<svg xmlns="http://www.w3.org/2000/svg" xmlns:xlink="http://www.w3.org/1999/xlink" width="16" height="16"><defs><linearGradient id="a"><stop offset="0" stop-color="#a3a3a3"/><stop offset="1" stop-color="#bababa"/></linearGradient><linearGradient x1="-51.786" y1="50.786" x2="-51.786" y2="2.906" id="g" xlink:href="#b" gradientUnits="userSpaceOnUse" gradientTransform="matrix(.25379 0 0 .30502 19.129 -.685)"/><linearGradient id="b"><stop offset="0" stop-opacity=".34"/><stop offset="1" stop-opacity=".247"/></linearGradient><linearGradient x1="24" y1="6.205" x2="24" y2="41.59" id="f" xlink:href="#c" gradientUnits="userSpaceOnUse" gradientTransform="matrix(.24324 0 0 .35135 2.162 -.432)"/><linearGradient id="c"><stop offset="0" stop-color="#fff"/><stop offset=".029" stop-color="#fff" stop-opacity=".235"/><stop offset=".972" stop-color="#fff" stop-opacity=".157"/><stop offset="1" stop-color="#fff" stop-opacity=".392"/></linearGradient><linearGradient id="d"><stop offset="0" stop-color="#f4f4f4"/><stop offset="1" stop-color="#dbdbdb"/></linearGradient><linearGradient x1="25.132" y1=".985" x2="25.132" y2="47.013" id="e" xlink:href="#d" gradientUnits="userSpaceOnUse" gradientTransform="matrix(.28571 0 0 .3042 1.143 .233)"/></defs><path d="M3 1h10v14H3V1z" fill="url(#e)"/><path d="M12.5 14.5h-9v-13h9z" fill="none" stroke="url(#f)" stroke-linecap="round"/><path d="M2.5.5h11v15h-11V.5z" fill="none" stroke="url(#g)" stroke-linejoin="round"/><path d="M4 7v1h3.063V7H4zM8 7v1h4V7H8zM10 5v1h1.906V5H10zM7 5v1h2.156V5H7zM4 5v1h2.313V5H4zm3-2v1h2V3H7zM4 3v1h2V3H4zM4 9v1h2V9H4zM4 13h3.037v1H4v-1zM8 13v1h3.344v-1H8zm-4-2v1h2v-1H4zm3-2v1h2V9H7z" fill="#666"/></svg>