<svg xmlns="http://www.w3.org/2000/svg" xmlns:xlink="http://www.w3.org/1999/xlink" width="16" height="16"><defs><linearGradient xlink:href="#a" id="n" gradientUnits="userSpaceOnUse" gradientTransform="matrix(.24324 0 0 .35135 2.162 -.432)" x1="24" y1="5.564" x2="24" y2="43"/><linearGradient id="a"><stop offset="0" stop-color="#fff"/><stop offset=".036" stop-color="#fff" stop-opacity=".235"/><stop offset=".951" stop-color="#fff" stop-opacity=".157"/><stop offset="1" stop-color="#fff" stop-opacity=".392"/></linearGradient><linearGradient xlink:href="#b" id="p" gradientUnits="userSpaceOnUse" gradientTransform="matrix(.3659 0 0 .36726 .804 -.727)" x1="24.239" y1="44.11" x2="24.239" y2=".191"/><linearGradient id="b"><stop offset="0" stop-color="#355129"/><stop offset="1" stop-color="#7c8763"/></linearGradient><linearGradient xlink:href="#c" id="m" gradientUnits="userSpaceOnUse" gradientTransform="matrix(.32353 0 0 .35484 22.738 -2.037)" spreadMethod="reflect" x1="-43.305" y1="34.497" x2="-25.366" y2="20.127"/><linearGradient id="c"><stop offset="0"/><stop offset="1" stop-opacity="0"/></linearGradient><linearGradient xlink:href="#d" id="l" gradientUnits="userSpaceOnUse" gradientTransform="matrix(.38408 0 0 .32615 -20.298 .777)" spreadMethod="reflect" x1="75.854" y1="28" x2="91" y2="12"/><linearGradient id="d"><stop offset="0" stop-color="#fff"/><stop offset="1" stop-color="#fff" stop-opacity="0"/></linearGradient><linearGradient xlink:href="#e" id="k" gradientUnits="userSpaceOnUse" gradientTransform="matrix(.38408 0 0 .32615 -20.34 1.817)" spreadMethod="reflect" x1="75.854" y1="28" x2="91" y2="12"/><linearGradient id="e"><stop offset="0"/><stop offset="1" stop-opacity="0"/></linearGradient><radialGradient r="18" fy="11.49" fx="14.239" cy="11.49" cx="14.239" gradientTransform="scale(1.81669 1.0835) rotate(90 13 .877)" gradientUnits="userSpaceOnUse" id="i" xlink:href="#f"/><linearGradient id="f"><stop offset="0" stop-color="#b5cc85"/><stop offset=".262" stop-color="#9abe74"/><stop offset=".705" stop-color="#669f4d"/><stop offset="1" stop-color="#47892b"/></linearGradient><linearGradient y2="2.906" x2="-51.786" y1="53.624" x1="-51.786" gradientTransform="matrix(.27686 0 0 .30502 20.141 -.686)" gradientUnits="userSpaceOnUse" id="j" xlink:href="#g"/><linearGradient id="g"><stop offset="0" stop-color="#425a2d"/><stop offset="1" stop-color="#7f956d"/></linearGradient><linearGradient id="h"><stop offset="0" stop-color="#fff"/><stop offset="1" stop-color="#fff" stop-opacity="0"/></linearGradient><linearGradient y2="24.628" x2="20.055" y1="15.298" x1="16.626" gradientTransform="matrix(.21769 0 0 .42875 2.776 -1.56)" gradientUnits="userSpaceOnUse" id="o" xlink:href="#h"/></defs><path style="marker:none" d="M2.5.5h11v15h-11V.5z" fill="url(#i)" stroke="url(#j)" stroke-linejoin="round" color="#000" overflow="visible"/><path style="marker:none" d="M6.354 5L2.5 10.45V16h9.156c.845-1.193.975-1.375 1.844-2.604v-5.03C10.978 7.175 7.992 5.771 6.354 5z" opacity=".1" fill="url(#k)" overflow="visible"/><path style="marker:none" d="M6.354 4L2.5 9.45V15h9.156c.845-1.193.975-1.375 1.844-2.604v-5.03C10.978 6.175 7.992 4.771 6.354 4z" opacity=".4" fill="url(#l)" overflow="visible"/><path style="marker:none" d="M6.642 5.803l-.404.555L8.381 7.4l.405-.554-2.144-1.043zm-.808 1.098l-.405.554 2.144 1.043.404-.555-2.143-1.042zm3.569.244l-.405.554 2.144 1.043.404-.555-2.143-1.042zm-4.378.865l-.415.554 2.144 1.043.414-.555L5.025 8.01zm3.569.233l-.405.554 2.144 1.042.404-.554-2.143-1.042zm3.569.244l-.415.543 1.588.776v-.754l-1.173-.565zm-7.957.632l-.405.543 2.144 1.042.404-.543-2.143-1.042zm3.579.233l-.415.554 2.144 1.042.414-.554-2.143-1.042zm3.559.232l-.405.555 2.144 1.042.253-.344v-.288l-1.992-.965zm-7.947.632l-.404.555 2.143 1.042.404-.554-2.143-1.043zm3.569.244l-.404.544 2.143 1.042.404-.543-2.143-1.043zm3.569.233l-.404.544 2.143 1.042.404-.543-2.143-1.043zm-7.876.677v.743l1.658.81.405-.555-2.063-.998zm3.498.188l-.404.555 2.143 1.042.405-.554-2.144-1.043zm3.559.233l-.404.555 2.143 1.042.404-.555-2.143-1.042zm-4.378.876l-.404.555 2.143 1.042.405-.555-2.144-1.042zm-2.679.189v.754l.85.41.404-.555-1.254-.61zm6.248.044l-.404.554 2.143 1.043.405-.555L8.907 12.9zm-4.378.865l-.404.554 1.051.51h1.477l.02-.022-2.144-1.042zm3.57.233l-.415.554.566.277h1.557l-1.709-.831zm-5.44.355v.476h.253l.192-.255-.445-.221z" opacity=".1" fill="url(#m)" fill-rule="evenodd" overflow="visible"/><path d="M12.5 14.5h-9v-13h9z" fill="none" stroke="url(#n)" stroke-linecap="round" opacity=".5"/><path d="M3 1v7.798c0 .058.013.112.035.15.022.039.051.057.08.05l9.797-3.054c.05-.016.087-.1.088-.2V1z" opacity=".2" fill="url(#o)" fill-rule="evenodd"/><path style="-inkscape-font-specification:Droid Sans Bold" d="M11.5 13H9.57L7.94 9.974 6.31 13H4.5l2.42-4.126L4.67 5h1.864l1.494 2.878L9.488 5h1.821L9.03 8.967 11.5 13z" font-size="31.355" font-weight="700" opacity=".4" fill="#fff" font-family="Droid Sans"/><path style="-inkscape-font-specification:Droid Sans Bold" d="M11.5 12H9.57L7.94 8.974 6.31 12H4.5l2.42-4.126L4.67 4h1.864l1.494 2.878L9.488 4h1.821L9.03 7.967 11.5 12z" font-size="31.355" font-weight="700" fill="url(#p)" font-family="Droid Sans"/></svg>